<mxfile host="Electron" agent="Mozilla/5.0 (Windows NT 10.0; Win64; x64) AppleWebKit/537.36 (KHTML, like Gecko) draw.io/24.7.17 Chrome/128.0.6613.36 Electron/32.0.1 Safari/537.36" version="24.7.17" pages="2">
  <diagram name="ERD" id="QjuTqfYs076ZWg4kDuWV">
    <mxGraphModel dx="2593" dy="1445" grid="1" gridSize="10" guides="1" tooltips="1" connect="1" arrows="1" fold="1" page="0" pageScale="1" pageWidth="827" pageHeight="1169" background="none" math="0" shadow="0">
      <root>
        <mxCell id="0" />
        <mxCell id="1" parent="0" />
        <mxCell id="fJpas_aMie5ZIC00HAkX-1" value="Player" style="whiteSpace=wrap;html=1;align=center;fontFamily=Helvetica;fontSize=11;fontColor=default;labelBackgroundColor=default;" parent="1" vertex="1">
          <mxGeometry x="-49" y="75" width="65" height="40" as="geometry" />
        </mxCell>
        <mxCell id="fJpas_aMie5ZIC00HAkX-2" style="edgeStyle=none;shape=connector;rounded=0;orthogonalLoop=1;jettySize=auto;html=1;entryDx=0;entryDy=0;strokeColor=default;align=center;verticalAlign=middle;fontFamily=Helvetica;fontSize=11;fontColor=default;labelBackgroundColor=default;endArrow=none;endFill=0;" parent="1" source="fJpas_aMie5ZIC00HAkX-3" target="fJpas_aMie5ZIC00HAkX-1" edge="1">
          <mxGeometry relative="1" as="geometry" />
        </mxCell>
        <mxCell id="fJpas_aMie5ZIC00HAkX-3" value="dob" style="ellipse;whiteSpace=wrap;html=1;align=center;fontFamily=Helvetica;fontSize=11;fontColor=default;labelBackgroundColor=default;flipV=1;" parent="1" vertex="1">
          <mxGeometry x="-186" y="10" width="60" height="40" as="geometry" />
        </mxCell>
        <mxCell id="fJpas_aMie5ZIC00HAkX-4" value="playerId" style="ellipse;whiteSpace=wrap;html=1;align=center;fontStyle=4;fontFamily=Helvetica;fontSize=11;fontColor=default;labelBackgroundColor=default;flipV=1;" parent="1" vertex="1">
          <mxGeometry x="-143.99" y="-35" width="50" height="40" as="geometry" />
        </mxCell>
        <mxCell id="fJpas_aMie5ZIC00HAkX-5" style="edgeStyle=none;shape=connector;rounded=0;orthogonalLoop=1;jettySize=auto;html=1;entryDx=0;entryDy=0;entryPerimeter=0;strokeColor=default;align=center;verticalAlign=middle;fontFamily=Helvetica;fontSize=11;fontColor=default;labelBackgroundColor=default;endArrow=none;endFill=0;" parent="1" source="fJpas_aMie5ZIC00HAkX-4" target="fJpas_aMie5ZIC00HAkX-1" edge="1">
          <mxGeometry relative="1" as="geometry" />
        </mxCell>
        <mxCell id="fJpas_aMie5ZIC00HAkX-16" style="edgeStyle=none;shape=connector;rounded=0;orthogonalLoop=1;jettySize=auto;html=1;strokeColor=default;align=center;verticalAlign=middle;fontFamily=Helvetica;fontSize=11;fontColor=default;labelBackgroundColor=default;endArrow=none;endFill=0;" parent="1" source="fJpas_aMie5ZIC00HAkX-6" target="fJpas_aMie5ZIC00HAkX-1" edge="1">
          <mxGeometry relative="1" as="geometry" />
        </mxCell>
        <mxCell id="fJpas_aMie5ZIC00HAkX-6" value="nationality" style="ellipse;whiteSpace=wrap;html=1;align=center;fontFamily=Helvetica;fontSize=11;fontColor=default;labelBackgroundColor=default;flipV=1;" parent="1" vertex="1">
          <mxGeometry x="-186" y="60" width="60" height="40" as="geometry" />
        </mxCell>
        <mxCell id="fJpas_aMie5ZIC00HAkX-12" style="rounded=0;orthogonalLoop=1;jettySize=auto;html=1;strokeColor=default;endArrow=none;endFill=0;" parent="1" source="fJpas_aMie5ZIC00HAkX-9" target="fJpas_aMie5ZIC00HAkX-1" edge="1">
          <mxGeometry relative="1" as="geometry" />
        </mxCell>
        <mxCell id="fJpas_aMie5ZIC00HAkX-9" value="ingameName" style="ellipse;whiteSpace=wrap;html=1;align=center;fontFamily=Helvetica;fontSize=11;fontColor=default;labelBackgroundColor=default;flipV=1;" parent="1" vertex="1">
          <mxGeometry x="-80.25" y="-35" width="71" height="40" as="geometry" />
        </mxCell>
        <mxCell id="fJpas_aMie5ZIC00HAkX-14" style="edgeStyle=none;shape=connector;rounded=0;orthogonalLoop=1;jettySize=auto;html=1;strokeColor=default;align=center;verticalAlign=middle;fontFamily=Helvetica;fontSize=11;fontColor=default;labelBackgroundColor=default;endArrow=none;endFill=0;" parent="1" source="fJpas_aMie5ZIC00HAkX-10" target="fJpas_aMie5ZIC00HAkX-1" edge="1">
          <mxGeometry relative="1" as="geometry" />
        </mxCell>
        <mxCell id="fJpas_aMie5ZIC00HAkX-118" style="edgeStyle=none;shape=connector;rounded=0;orthogonalLoop=1;jettySize=auto;html=1;strokeColor=default;align=center;verticalAlign=middle;fontFamily=Helvetica;fontSize=11;fontColor=default;labelBackgroundColor=default;endArrow=none;endFill=0;" parent="1" source="fJpas_aMie5ZIC00HAkX-10" target="fJpas_aMie5ZIC00HAkX-97" edge="1">
          <mxGeometry relative="1" as="geometry" />
        </mxCell>
        <mxCell id="fJpas_aMie5ZIC00HAkX-119" style="edgeStyle=none;shape=connector;rounded=0;orthogonalLoop=1;jettySize=auto;html=1;strokeColor=default;align=center;verticalAlign=middle;fontFamily=Helvetica;fontSize=11;fontColor=default;labelBackgroundColor=default;endArrow=none;endFill=0;" parent="1" source="fJpas_aMie5ZIC00HAkX-10" target="fJpas_aMie5ZIC00HAkX-98" edge="1">
          <mxGeometry relative="1" as="geometry" />
        </mxCell>
        <mxCell id="fJpas_aMie5ZIC00HAkX-10" value="playerName" style="ellipse;whiteSpace=wrap;html=1;align=center;fontFamily=Helvetica;fontSize=11;fontColor=default;labelBackgroundColor=default;flipV=1;" parent="1" vertex="1">
          <mxGeometry x="-7" y="-14" width="66" height="40" as="geometry" />
        </mxCell>
        <mxCell id="fJpas_aMie5ZIC00HAkX-15" style="edgeStyle=none;shape=connector;rounded=0;orthogonalLoop=1;jettySize=auto;html=1;strokeColor=default;align=center;verticalAlign=middle;fontFamily=Helvetica;fontSize=11;fontColor=default;labelBackgroundColor=default;endArrow=none;endFill=0;" parent="1" source="fJpas_aMie5ZIC00HAkX-11" target="fJpas_aMie5ZIC00HAkX-1" edge="1">
          <mxGeometry relative="1" as="geometry" />
        </mxCell>
        <mxCell id="fJpas_aMie5ZIC00HAkX-11" value="role" style="ellipse;whiteSpace=wrap;html=1;align=center;fontFamily=Helvetica;fontSize=11;fontColor=default;labelBackgroundColor=default;flipV=1;" parent="1" vertex="1">
          <mxGeometry x="69.75" y="-35" width="60" height="40" as="geometry" />
        </mxCell>
        <mxCell id="fJpas_aMie5ZIC00HAkX-21" value="Team" style="whiteSpace=wrap;html=1;align=center;fontFamily=Helvetica;fontSize=11;fontColor=default;labelBackgroundColor=default;" parent="1" vertex="1">
          <mxGeometry x="783.5" y="72" width="65" height="40" as="geometry" />
        </mxCell>
        <mxCell id="fJpas_aMie5ZIC00HAkX-30" style="rounded=0;orthogonalLoop=1;jettySize=auto;html=1;strokeColor=default;endArrow=none;endFill=0;" parent="1" source="fJpas_aMie5ZIC00HAkX-31" target="fJpas_aMie5ZIC00HAkX-21" edge="1">
          <mxGeometry relative="1" as="geometry" />
        </mxCell>
        <mxCell id="fJpas_aMie5ZIC00HAkX-31" value="&lt;u&gt;teamId&lt;/u&gt;" style="ellipse;whiteSpace=wrap;html=1;align=center;fontFamily=Helvetica;fontSize=11;fontColor=default;labelBackgroundColor=default;flipV=1;" parent="1" vertex="1">
          <mxGeometry x="884" y="-14" width="60" height="40" as="geometry" />
        </mxCell>
        <mxCell id="fJpas_aMie5ZIC00HAkX-38" value="Region" style="whiteSpace=wrap;html=1;align=center;fontFamily=Helvetica;fontSize=11;fontColor=default;labelBackgroundColor=default;" parent="1" vertex="1">
          <mxGeometry x="783.5" y="547" width="65" height="40" as="geometry" />
        </mxCell>
        <mxCell id="fJpas_aMie5ZIC00HAkX-41" style="rounded=0;orthogonalLoop=1;jettySize=auto;html=1;strokeColor=default;endArrow=none;endFill=0;" parent="1" source="fJpas_aMie5ZIC00HAkX-42" target="fJpas_aMie5ZIC00HAkX-38" edge="1">
          <mxGeometry relative="1" as="geometry" />
        </mxCell>
        <mxCell id="fJpas_aMie5ZIC00HAkX-42" value="regionName" style="ellipse;whiteSpace=wrap;html=1;align=center;fontFamily=Helvetica;fontSize=11;fontColor=default;labelBackgroundColor=default;flipV=1;fontStyle=4" parent="1" vertex="1">
          <mxGeometry x="771" y="637" width="90" height="40" as="geometry" />
        </mxCell>
        <mxCell id="fJpas_aMie5ZIC00HAkX-82" style="edgeStyle=none;shape=link;rounded=0;orthogonalLoop=1;jettySize=auto;html=1;strokeColor=default;align=center;verticalAlign=middle;fontFamily=Helvetica;fontSize=11;fontColor=default;labelBackgroundColor=default;endArrow=none;endFill=0;" parent="1" source="fJpas_aMie5ZIC00HAkX-47" target="fJpas_aMie5ZIC00HAkX-81" edge="1">
          <mxGeometry relative="1" as="geometry" />
        </mxCell>
        <mxCell id="m6y0govJC5TdCKhgVr8m-4" style="rounded=0;orthogonalLoop=1;jettySize=auto;html=1;endArrow=none;endFill=0;exitX=1;exitY=0;exitDx=0;exitDy=0;entryX=0;entryY=0.5;entryDx=0;entryDy=0;" parent="1" source="fJpas_aMie5ZIC00HAkX-47" target="m6y0govJC5TdCKhgVr8m-11" edge="1">
          <mxGeometry relative="1" as="geometry">
            <mxPoint x="738" y="773" as="targetPoint" />
          </mxGeometry>
        </mxCell>
        <mxCell id="wX9nulocx6VRCnXDJnAP-2" style="rounded=0;orthogonalLoop=1;jettySize=auto;html=1;endArrow=none;endFill=0;" parent="1" source="fJpas_aMie5ZIC00HAkX-47" target="fJpas_aMie5ZIC00HAkX-103" edge="1">
          <mxGeometry relative="1" as="geometry" />
        </mxCell>
        <mxCell id="fJpas_aMie5ZIC00HAkX-47" value="Tournament" style="whiteSpace=wrap;html=1;align=center;fontFamily=Helvetica;fontSize=11;fontColor=default;labelBackgroundColor=default;flipV=1;" parent="1" vertex="1">
          <mxGeometry x="-49" y="566" width="65" height="40" as="geometry" />
        </mxCell>
        <mxCell id="fJpas_aMie5ZIC00HAkX-50" value="tournamentId" style="ellipse;whiteSpace=wrap;html=1;align=center;fontStyle=4;fontFamily=Helvetica;fontSize=11;fontColor=default;labelBackgroundColor=default;flipV=1;" parent="1" vertex="1">
          <mxGeometry x="68" y="604" width="90" height="40" as="geometry" />
        </mxCell>
        <mxCell id="fJpas_aMie5ZIC00HAkX-51" style="edgeStyle=none;shape=connector;rounded=0;orthogonalLoop=1;jettySize=auto;html=1;entryDx=0;entryDy=0;entryPerimeter=0;strokeColor=default;align=center;verticalAlign=middle;fontFamily=Helvetica;fontSize=11;fontColor=default;labelBackgroundColor=default;endArrow=none;endFill=0;" parent="1" source="fJpas_aMie5ZIC00HAkX-50" target="fJpas_aMie5ZIC00HAkX-47" edge="1">
          <mxGeometry relative="1" as="geometry" />
        </mxCell>
        <mxCell id="fJpas_aMie5ZIC00HAkX-52" style="edgeStyle=none;shape=connector;rounded=0;orthogonalLoop=1;jettySize=auto;html=1;strokeColor=default;align=center;verticalAlign=middle;fontFamily=Helvetica;fontSize=11;fontColor=default;labelBackgroundColor=default;endArrow=none;endFill=0;" parent="1" source="fJpas_aMie5ZIC00HAkX-53" target="fJpas_aMie5ZIC00HAkX-47" edge="1">
          <mxGeometry relative="1" as="geometry" />
        </mxCell>
        <mxCell id="fJpas_aMie5ZIC00HAkX-53" value="endDate" style="ellipse;whiteSpace=wrap;html=1;align=center;fontFamily=Helvetica;fontSize=11;fontColor=default;labelBackgroundColor=default;flipV=1;" parent="1" vertex="1">
          <mxGeometry x="-153.99" y="490" width="60" height="40" as="geometry" />
        </mxCell>
        <mxCell id="fJpas_aMie5ZIC00HAkX-54" style="edgeStyle=none;shape=connector;rounded=0;orthogonalLoop=1;jettySize=auto;html=1;strokeColor=default;align=center;verticalAlign=middle;fontFamily=Helvetica;fontSize=11;fontColor=default;labelBackgroundColor=default;endArrow=none;endFill=0;" parent="1" source="fJpas_aMie5ZIC00HAkX-55" target="fJpas_aMie5ZIC00HAkX-47" edge="1">
          <mxGeometry relative="1" as="geometry" />
        </mxCell>
        <mxCell id="fJpas_aMie5ZIC00HAkX-55" value="startDate" style="ellipse;whiteSpace=wrap;html=1;align=center;fontFamily=Helvetica;fontSize=11;fontColor=default;labelBackgroundColor=default;flipV=1;" parent="1" vertex="1">
          <mxGeometry x="-88.99" y="479" width="60" height="40" as="geometry" />
        </mxCell>
        <mxCell id="fJpas_aMie5ZIC00HAkX-56" style="rounded=0;orthogonalLoop=1;jettySize=auto;html=1;strokeColor=default;endArrow=none;endFill=0;exitX=0.5;exitY=0;exitDx=0;exitDy=0;" parent="1" source="fJpas_aMie5ZIC00HAkX-57" target="fJpas_aMie5ZIC00HAkX-47" edge="1">
          <mxGeometry relative="1" as="geometry" />
        </mxCell>
        <mxCell id="fJpas_aMie5ZIC00HAkX-57" value="tournamentName" style="ellipse;whiteSpace=wrap;html=1;align=center;fontFamily=Helvetica;fontSize=11;fontColor=default;labelBackgroundColor=default;flipV=1;" parent="1" vertex="1">
          <mxGeometry x="-135" y="647" width="110" height="40" as="geometry" />
        </mxCell>
        <mxCell id="fJpas_aMie5ZIC00HAkX-66" style="edgeStyle=none;shape=link;rounded=0;orthogonalLoop=1;jettySize=auto;html=1;strokeColor=default;align=center;verticalAlign=middle;fontFamily=Helvetica;fontSize=11;fontColor=default;labelBackgroundColor=default;endArrow=none;endFill=0;exitX=0.5;exitY=0;exitDx=0;exitDy=0;" parent="1" source="fJpas_aMie5ZIC00HAkX-65" target="fJpas_aMie5ZIC00HAkX-21" edge="1">
          <mxGeometry relative="1" as="geometry">
            <mxPoint x="552.5" y="200" as="sourcePoint" />
          </mxGeometry>
        </mxCell>
        <mxCell id="fJpas_aMie5ZIC00HAkX-67" style="edgeStyle=none;shape=connector;rounded=0;orthogonalLoop=1;jettySize=auto;html=1;strokeColor=default;align=center;verticalAlign=middle;fontFamily=Helvetica;fontSize=11;fontColor=default;labelBackgroundColor=default;endArrow=none;endFill=0;" parent="1" source="fJpas_aMie5ZIC00HAkX-65" target="fJpas_aMie5ZIC00HAkX-38" edge="1">
          <mxGeometry relative="1" as="geometry" />
        </mxCell>
        <mxCell id="fJpas_aMie5ZIC00HAkX-65" value="Belongs to" style="shape=rhombus;perimeter=rhombusPerimeter;whiteSpace=wrap;html=1;align=center;fontFamily=Helvetica;fontSize=11;fontColor=default;labelBackgroundColor=default;" parent="1" vertex="1">
          <mxGeometry x="756" y="277" width="120" height="60" as="geometry" />
        </mxCell>
        <mxCell id="fJpas_aMie5ZIC00HAkX-68" value="M" style="text;html=1;align=center;verticalAlign=middle;resizable=0;points=[];autosize=1;strokeColor=none;fillColor=none;fontFamily=Helvetica;fontSize=11;fontColor=default;labelBackgroundColor=default;" parent="1" vertex="1">
          <mxGeometry x="823.5" y="338" width="27" height="25" as="geometry" />
        </mxCell>
        <mxCell id="fJpas_aMie5ZIC00HAkX-69" value="N" style="text;html=1;align=center;verticalAlign=middle;resizable=0;points=[];autosize=1;strokeColor=none;fillColor=none;fontFamily=Helvetica;fontSize=11;fontColor=default;labelBackgroundColor=default;" parent="1" vertex="1">
          <mxGeometry x="813.5" y="247" width="30" height="30" as="geometry" />
        </mxCell>
        <mxCell id="fJpas_aMie5ZIC00HAkX-76" style="edgeStyle=none;shape=link;rounded=0;orthogonalLoop=1;jettySize=auto;html=1;strokeColor=default;align=center;verticalAlign=middle;fontFamily=Helvetica;fontSize=11;fontColor=default;labelBackgroundColor=default;endArrow=none;endFill=0;" parent="1" source="fJpas_aMie5ZIC00HAkX-70" target="fJpas_aMie5ZIC00HAkX-71" edge="1">
          <mxGeometry relative="1" as="geometry" />
        </mxCell>
        <mxCell id="fJpas_aMie5ZIC00HAkX-77" style="edgeStyle=none;shape=connector;rounded=0;orthogonalLoop=1;jettySize=auto;html=1;strokeColor=default;align=center;verticalAlign=middle;fontFamily=Helvetica;fontSize=11;fontColor=default;labelBackgroundColor=default;endArrow=none;endFill=0;exitX=1;exitY=0.5;exitDx=0;exitDy=0;" parent="1" source="fJpas_aMie5ZIC00HAkX-70" target="fJpas_aMie5ZIC00HAkX-38" edge="1">
          <mxGeometry relative="1" as="geometry" />
        </mxCell>
        <mxCell id="fJpas_aMie5ZIC00HAkX-70" value="Belongs to" style="shape=rhombus;perimeter=rhombusPerimeter;whiteSpace=wrap;html=1;align=center;fontFamily=Helvetica;fontSize=11;fontColor=default;labelBackgroundColor=default;" parent="1" vertex="1">
          <mxGeometry x="577" y="537" width="120" height="60" as="geometry" />
        </mxCell>
        <mxCell id="fJpas_aMie5ZIC00HAkX-83" style="edgeStyle=none;shape=connector;rounded=0;orthogonalLoop=1;jettySize=auto;html=1;strokeColor=default;align=center;verticalAlign=middle;fontFamily=Helvetica;fontSize=11;fontColor=default;labelBackgroundColor=default;endArrow=none;endFill=0;" parent="1" source="fJpas_aMie5ZIC00HAkX-71" target="fJpas_aMie5ZIC00HAkX-81" edge="1">
          <mxGeometry relative="1" as="geometry" />
        </mxCell>
        <mxCell id="fJpas_aMie5ZIC00HAkX-71" value="Region Tournament" style="whiteSpace=wrap;html=1;align=center;fontFamily=Helvetica;fontSize=11;fontColor=default;labelBackgroundColor=default;flipV=1;" parent="1" vertex="1">
          <mxGeometry x="442" y="547" width="65" height="40" as="geometry" />
        </mxCell>
        <mxCell id="fJpas_aMie5ZIC00HAkX-84" style="edgeStyle=none;shape=connector;rounded=0;orthogonalLoop=1;jettySize=auto;html=1;strokeColor=default;align=center;verticalAlign=middle;fontFamily=Helvetica;fontSize=11;fontColor=default;labelBackgroundColor=default;endArrow=none;endFill=0;" parent="1" source="fJpas_aMie5ZIC00HAkX-73" target="fJpas_aMie5ZIC00HAkX-81" edge="1">
          <mxGeometry relative="1" as="geometry" />
        </mxCell>
        <mxCell id="fJpas_aMie5ZIC00HAkX-73" value="International Tournament" style="whiteSpace=wrap;html=1;align=center;fontFamily=Helvetica;fontSize=11;fontColor=default;labelBackgroundColor=default;flipV=1;" parent="1" vertex="1">
          <mxGeometry x="417.75" y="611" width="113.5" height="40" as="geometry" />
        </mxCell>
        <mxCell id="fJpas_aMie5ZIC00HAkX-75" style="edgeStyle=none;shape=connector;rounded=0;orthogonalLoop=1;jettySize=auto;html=1;strokeColor=default;align=center;verticalAlign=middle;fontFamily=Helvetica;fontSize=11;fontColor=default;labelBackgroundColor=default;endArrow=none;endFill=0;" parent="1" source="fJpas_aMie5ZIC00HAkX-74" target="fJpas_aMie5ZIC00HAkX-71" edge="1">
          <mxGeometry relative="1" as="geometry" />
        </mxCell>
        <mxCell id="fJpas_aMie5ZIC00HAkX-74" value="season" style="ellipse;whiteSpace=wrap;html=1;align=center;fontFamily=Helvetica;fontSize=11;fontColor=default;labelBackgroundColor=default;flipV=1;" parent="1" vertex="1">
          <mxGeometry x="444.5" y="495" width="60" height="40" as="geometry" />
        </mxCell>
        <mxCell id="fJpas_aMie5ZIC00HAkX-81" value="d" style="ellipse;whiteSpace=wrap;html=1;aspect=fixed;fontFamily=Helvetica;fontSize=11;fontColor=default;labelBackgroundColor=default;" parent="1" vertex="1">
          <mxGeometry x="313" y="566" width="40" height="40" as="geometry" />
        </mxCell>
        <mxCell id="fJpas_aMie5ZIC00HAkX-86" style="edgeStyle=none;shape=connector;rounded=0;orthogonalLoop=1;jettySize=auto;html=1;strokeColor=default;align=center;verticalAlign=middle;fontFamily=Helvetica;fontSize=11;fontColor=default;labelBackgroundColor=default;endArrow=none;endFill=0;" parent="1" source="fJpas_aMie5ZIC00HAkX-85" target="fJpas_aMie5ZIC00HAkX-1" edge="1">
          <mxGeometry relative="1" as="geometry" />
        </mxCell>
        <mxCell id="fJpas_aMie5ZIC00HAkX-87" style="edgeStyle=none;shape=connector;rounded=0;orthogonalLoop=1;jettySize=auto;html=1;exitX=1;exitY=0.5;exitDx=0;exitDy=0;strokeColor=default;align=center;verticalAlign=middle;fontFamily=Helvetica;fontSize=11;fontColor=default;labelBackgroundColor=default;endArrow=none;endFill=0;" parent="1" source="fJpas_aMie5ZIC00HAkX-85" target="fJpas_aMie5ZIC00HAkX-21" edge="1">
          <mxGeometry relative="1" as="geometry" />
        </mxCell>
        <mxCell id="fJpas_aMie5ZIC00HAkX-85" value="Play for" style="shape=rhombus;perimeter=rhombusPerimeter;whiteSpace=wrap;html=1;align=center;fontFamily=Helvetica;fontSize=11;fontColor=default;labelBackgroundColor=default;" parent="1" vertex="1">
          <mxGeometry x="344" y="65" width="120" height="60" as="geometry" />
        </mxCell>
        <mxCell id="fJpas_aMie5ZIC00HAkX-88" value="N" style="text;html=1;align=center;verticalAlign=middle;resizable=0;points=[];autosize=1;strokeColor=none;fillColor=none;fontFamily=Helvetica;fontSize=11;fontColor=default;labelBackgroundColor=default;" parent="1" vertex="1">
          <mxGeometry x="329" y="93" width="30" height="30" as="geometry" />
        </mxCell>
        <mxCell id="fJpas_aMie5ZIC00HAkX-89" value="M" style="text;html=1;align=center;verticalAlign=middle;resizable=0;points=[];autosize=1;strokeColor=none;fillColor=none;fontFamily=Helvetica;fontSize=11;fontColor=default;labelBackgroundColor=default;" parent="1" vertex="1">
          <mxGeometry x="459" y="93" width="30" height="30" as="geometry" />
        </mxCell>
        <mxCell id="fJpas_aMie5ZIC00HAkX-91" style="edgeStyle=none;shape=connector;rounded=0;orthogonalLoop=1;jettySize=auto;html=1;strokeColor=default;align=center;verticalAlign=middle;fontFamily=Helvetica;fontSize=11;fontColor=default;labelBackgroundColor=default;endArrow=none;endFill=0;" parent="1" source="fJpas_aMie5ZIC00HAkX-90" target="fJpas_aMie5ZIC00HAkX-47" edge="1">
          <mxGeometry relative="1" as="geometry" />
        </mxCell>
        <mxCell id="fJpas_aMie5ZIC00HAkX-90" value="numberOfTeams" style="ellipse;whiteSpace=wrap;html=1;align=center;dashed=1;fontFamily=Helvetica;fontSize=11;fontColor=default;labelBackgroundColor=default;" parent="1" vertex="1">
          <mxGeometry x="7" y="647" width="100" height="40" as="geometry" />
        </mxCell>
        <mxCell id="fJpas_aMie5ZIC00HAkX-93" style="edgeStyle=none;shape=connector;rounded=0;orthogonalLoop=1;jettySize=auto;html=1;strokeColor=default;align=center;verticalAlign=middle;fontFamily=Helvetica;fontSize=11;fontColor=default;labelBackgroundColor=default;endArrow=none;endFill=0;" parent="1" source="fJpas_aMie5ZIC00HAkX-92" target="fJpas_aMie5ZIC00HAkX-85" edge="1">
          <mxGeometry relative="1" as="geometry" />
        </mxCell>
        <mxCell id="fJpas_aMie5ZIC00HAkX-92" value="startDate" style="ellipse;whiteSpace=wrap;html=1;align=center;fontFamily=Helvetica;fontSize=11;fontColor=default;labelBackgroundColor=default;flipV=1;" parent="1" vertex="1">
          <mxGeometry x="334" y="5" width="60" height="40" as="geometry" />
        </mxCell>
        <mxCell id="fJpas_aMie5ZIC00HAkX-95" style="edgeStyle=none;shape=connector;rounded=0;orthogonalLoop=1;jettySize=auto;html=1;strokeColor=default;align=center;verticalAlign=middle;fontFamily=Helvetica;fontSize=11;fontColor=default;labelBackgroundColor=default;endArrow=none;endFill=0;" parent="1" source="fJpas_aMie5ZIC00HAkX-94" target="fJpas_aMie5ZIC00HAkX-85" edge="1">
          <mxGeometry relative="1" as="geometry" />
        </mxCell>
        <mxCell id="fJpas_aMie5ZIC00HAkX-94" value="endDate" style="ellipse;whiteSpace=wrap;html=1;align=center;fontFamily=Helvetica;fontSize=11;fontColor=default;labelBackgroundColor=default;flipV=1;" parent="1" vertex="1">
          <mxGeometry x="414" y="5" width="60" height="40" as="geometry" />
        </mxCell>
        <mxCell id="fJpas_aMie5ZIC00HAkX-97" value="first name" style="ellipse;whiteSpace=wrap;html=1;align=center;fontFamily=Helvetica;fontSize=11;fontColor=default;labelBackgroundColor=default;flipV=1;" parent="1" vertex="1">
          <mxGeometry x="-44" y="-80" width="66" height="40" as="geometry" />
        </mxCell>
        <mxCell id="fJpas_aMie5ZIC00HAkX-98" value="lastMiddleName" style="ellipse;whiteSpace=wrap;html=1;align=center;fontFamily=Helvetica;fontSize=11;fontColor=default;labelBackgroundColor=default;flipV=1;" parent="1" vertex="1">
          <mxGeometry x="26.5" y="-80" width="111" height="40" as="geometry" />
        </mxCell>
        <mxCell id="fJpas_aMie5ZIC00HAkX-103" value="competitionLocation" style="ellipse;shape=doubleEllipse;margin=3;whiteSpace=wrap;html=1;align=center;fontFamily=Helvetica;fontSize=11;fontColor=default;labelBackgroundColor=default;" parent="1" vertex="1">
          <mxGeometry x="-68.75" y="684" width="110.75" height="40" as="geometry" />
        </mxCell>
        <mxCell id="fJpas_aMie5ZIC00HAkX-105" style="edgeStyle=none;shape=connector;rounded=0;orthogonalLoop=1;jettySize=auto;html=1;strokeColor=default;align=center;verticalAlign=middle;fontFamily=Helvetica;fontSize=11;fontColor=default;labelBackgroundColor=default;endArrow=none;endFill=0;exitX=1;exitY=0.5;exitDx=0;exitDy=0;" parent="1" source="fJpas_aMie5ZIC00HAkX-104" target="fJpas_aMie5ZIC00HAkX-21" edge="1">
          <mxGeometry relative="1" as="geometry" />
        </mxCell>
        <mxCell id="fJpas_aMie5ZIC00HAkX-106" style="edgeStyle=none;shape=connector;rounded=0;orthogonalLoop=1;jettySize=auto;html=1;strokeColor=default;align=center;verticalAlign=middle;fontFamily=Helvetica;fontSize=11;fontColor=default;labelBackgroundColor=default;endArrow=none;endFill=0;exitX=0;exitY=0.5;exitDx=0;exitDy=0;" parent="1" source="fJpas_aMie5ZIC00HAkX-104" target="fJpas_aMie5ZIC00HAkX-47" edge="1">
          <mxGeometry relative="1" as="geometry" />
        </mxCell>
        <mxCell id="fJpas_aMie5ZIC00HAkX-112" style="edgeStyle=none;shape=connector;rounded=0;orthogonalLoop=1;jettySize=auto;html=1;strokeColor=default;align=center;verticalAlign=middle;fontFamily=Helvetica;fontSize=11;fontColor=default;labelBackgroundColor=default;endArrow=none;endFill=0;" parent="1" source="fJpas_aMie5ZIC00HAkX-109" target="fJpas_aMie5ZIC00HAkX-103" edge="1">
          <mxGeometry relative="1" as="geometry" />
        </mxCell>
        <mxCell id="fJpas_aMie5ZIC00HAkX-109" value="city" style="ellipse;whiteSpace=wrap;html=1;align=center;fontFamily=Helvetica;fontSize=11;fontColor=default;labelBackgroundColor=default;flipV=1;" parent="1" vertex="1">
          <mxGeometry x="-73" y="734" width="60" height="40" as="geometry" />
        </mxCell>
        <mxCell id="fJpas_aMie5ZIC00HAkX-113" style="edgeStyle=none;shape=connector;rounded=0;orthogonalLoop=1;jettySize=auto;html=1;strokeColor=default;align=center;verticalAlign=middle;fontFamily=Helvetica;fontSize=11;fontColor=default;labelBackgroundColor=default;endArrow=none;endFill=0;" parent="1" source="fJpas_aMie5ZIC00HAkX-111" target="fJpas_aMie5ZIC00HAkX-103" edge="1">
          <mxGeometry relative="1" as="geometry" />
        </mxCell>
        <mxCell id="fJpas_aMie5ZIC00HAkX-111" value="arena" style="ellipse;whiteSpace=wrap;html=1;align=center;fontFamily=Helvetica;fontSize=11;fontColor=default;labelBackgroundColor=default;flipV=1;" parent="1" vertex="1">
          <mxGeometry x="-3" y="734" width="60" height="40" as="geometry" />
        </mxCell>
        <mxCell id="fJpas_aMie5ZIC00HAkX-115" style="edgeStyle=none;shape=connector;rounded=0;orthogonalLoop=1;jettySize=auto;html=1;strokeColor=default;align=center;verticalAlign=middle;fontFamily=Helvetica;fontSize=11;fontColor=default;labelBackgroundColor=default;endArrow=none;endFill=0;" parent="1" source="fJpas_aMie5ZIC00HAkX-114" target="fJpas_aMie5ZIC00HAkX-21" edge="1">
          <mxGeometry relative="1" as="geometry" />
        </mxCell>
        <mxCell id="fJpas_aMie5ZIC00HAkX-114" value="sponsors" style="ellipse;shape=doubleEllipse;margin=3;whiteSpace=wrap;html=1;align=center;fontFamily=Helvetica;fontSize=11;fontColor=default;labelBackgroundColor=default;direction=south;" parent="1" vertex="1">
          <mxGeometry x="881" y="35" width="90" height="40" as="geometry" />
        </mxCell>
        <mxCell id="fJpas_aMie5ZIC00HAkX-116" value="1" style="text;html=1;align=center;verticalAlign=middle;resizable=0;points=[];autosize=1;strokeColor=none;fillColor=none;fontFamily=Helvetica;fontSize=11;fontColor=default;labelBackgroundColor=default;" parent="1" vertex="1">
          <mxGeometry x="676.5" y="535" width="30" height="30" as="geometry" />
        </mxCell>
        <mxCell id="fJpas_aMie5ZIC00HAkX-117" value="N" style="text;html=1;align=center;verticalAlign=middle;resizable=0;points=[];autosize=1;strokeColor=none;fillColor=none;fontFamily=Helvetica;fontSize=11;fontColor=default;labelBackgroundColor=default;" parent="1" vertex="1">
          <mxGeometry x="560.5" y="537" width="30" height="30" as="geometry" />
        </mxCell>
        <mxCell id="fJpas_aMie5ZIC00HAkX-130" style="edgeStyle=none;rounded=0;orthogonalLoop=1;jettySize=auto;html=1;entryX=0;entryY=0.5;entryDx=0;entryDy=0;strokeColor=default;align=center;verticalAlign=middle;fontFamily=Helvetica;fontSize=11;fontColor=default;labelBackgroundColor=default;endArrow=none;endFill=0;" parent="1" source="fJpas_aMie5ZIC00HAkX-120" target="fJpas_aMie5ZIC00HAkX-128" edge="1">
          <mxGeometry relative="1" as="geometry" />
        </mxCell>
        <mxCell id="fJpas_aMie5ZIC00HAkX-131" style="edgeStyle=none;rounded=0;orthogonalLoop=1;jettySize=auto;html=1;entryX=0;entryY=0.5;entryDx=0;entryDy=0;strokeColor=default;align=center;verticalAlign=middle;fontFamily=Helvetica;fontSize=11;fontColor=default;labelBackgroundColor=default;endArrow=none;endFill=0;" parent="1" source="fJpas_aMie5ZIC00HAkX-120" target="fJpas_aMie5ZIC00HAkX-129" edge="1">
          <mxGeometry relative="1" as="geometry" />
        </mxCell>
        <mxCell id="wX9nulocx6VRCnXDJnAP-17" style="edgeStyle=none;shape=connector;rounded=0;orthogonalLoop=1;jettySize=auto;html=1;strokeColor=default;align=center;verticalAlign=middle;fontFamily=Helvetica;fontSize=11;fontColor=default;labelBackgroundColor=default;endArrow=none;endFill=0;" parent="1" source="fJpas_aMie5ZIC00HAkX-120" target="wX9nulocx6VRCnXDJnAP-14" edge="1">
          <mxGeometry relative="1" as="geometry" />
        </mxCell>
        <mxCell id="fJpas_aMie5ZIC00HAkX-120" value="Match" style="whiteSpace=wrap;html=1;align=center;fontFamily=Helvetica;fontSize=11;fontColor=default;labelBackgroundColor=default;" parent="1" vertex="1">
          <mxGeometry x="-64.75" y="277" width="100" height="40" as="geometry" />
        </mxCell>
        <mxCell id="fJpas_aMie5ZIC00HAkX-122" style="edgeStyle=none;shape=connector;rounded=0;orthogonalLoop=1;jettySize=auto;html=1;strokeColor=default;align=center;verticalAlign=middle;fontFamily=Helvetica;fontSize=11;fontColor=default;labelBackgroundColor=default;endArrow=none;endFill=0;" parent="1" source="fJpas_aMie5ZIC00HAkX-121" target="fJpas_aMie5ZIC00HAkX-120" edge="1">
          <mxGeometry relative="1" as="geometry" />
        </mxCell>
        <mxCell id="fJpas_aMie5ZIC00HAkX-121" value="matchId" style="ellipse;whiteSpace=wrap;html=1;align=center;fontStyle=4;fontFamily=Helvetica;fontSize=11;fontColor=default;labelBackgroundColor=default;flipV=1;" parent="1" vertex="1">
          <mxGeometry x="80.63" y="275" width="64.75" height="44" as="geometry" />
        </mxCell>
        <mxCell id="NF3LTUQ_bPjJrq3eggiO-4" style="rounded=0;orthogonalLoop=1;jettySize=auto;html=1;endArrow=none;endFill=0;" parent="1" source="fJpas_aMie5ZIC00HAkX-123" target="fJpas_aMie5ZIC00HAkX-120" edge="1">
          <mxGeometry relative="1" as="geometry" />
        </mxCell>
        <mxCell id="fJpas_aMie5ZIC00HAkX-123" value="matchDate" style="ellipse;whiteSpace=wrap;html=1;align=center;fontFamily=Helvetica;fontSize=11;fontColor=default;labelBackgroundColor=default;flipV=1;" parent="1" vertex="1">
          <mxGeometry x="59" y="327" width="60" height="40" as="geometry" />
        </mxCell>
        <mxCell id="fJpas_aMie5ZIC00HAkX-126" style="edgeStyle=none;rounded=0;orthogonalLoop=1;jettySize=auto;html=1;strokeColor=default;align=center;verticalAlign=middle;fontFamily=Helvetica;fontSize=11;fontColor=default;labelBackgroundColor=default;endArrow=none;endFill=0;exitX=1;exitY=0.5;exitDx=0;exitDy=0;" parent="1" source="fJpas_aMie5ZIC00HAkX-125" target="fJpas_aMie5ZIC00HAkX-47" edge="1">
          <mxGeometry relative="1" as="geometry" />
        </mxCell>
        <mxCell id="fJpas_aMie5ZIC00HAkX-127" style="edgeStyle=none;shape=connector;rounded=0;orthogonalLoop=1;jettySize=auto;html=1;strokeColor=default;align=center;verticalAlign=middle;fontFamily=Helvetica;fontSize=11;fontColor=default;labelBackgroundColor=default;endArrow=none;endFill=0;exitX=0;exitY=0.5;exitDx=0;exitDy=0;entryX=1;entryY=1;entryDx=0;entryDy=0;" parent="1" target="wX9nulocx6VRCnXDJnAP-21" edge="1" source="fJpas_aMie5ZIC00HAkX-125">
          <mxGeometry relative="1" as="geometry">
            <mxPoint x="-16.5" y="413" as="sourcePoint" />
          </mxGeometry>
        </mxCell>
        <mxCell id="fJpas_aMie5ZIC00HAkX-132" style="edgeStyle=none;shape=connector;rounded=0;orthogonalLoop=1;jettySize=auto;html=1;strokeColor=default;align=center;verticalAlign=middle;fontFamily=Helvetica;fontSize=11;fontColor=default;labelBackgroundColor=default;endArrow=none;endFill=0;exitX=1;exitY=0.5;exitDx=0;exitDy=0;" parent="1" source="fJpas_aMie5ZIC00HAkX-128" target="fJpas_aMie5ZIC00HAkX-21" edge="1">
          <mxGeometry relative="1" as="geometry" />
        </mxCell>
        <mxCell id="m6y0govJC5TdCKhgVr8m-15" style="rounded=0;orthogonalLoop=1;jettySize=auto;html=1;endArrow=none;endFill=0;" parent="1" source="fJpas_aMie5ZIC00HAkX-128" target="m6y0govJC5TdCKhgVr8m-14" edge="1">
          <mxGeometry relative="1" as="geometry" />
        </mxCell>
        <mxCell id="fJpas_aMie5ZIC00HAkX-128" value="Is team A of" style="shape=rhombus;perimeter=rhombusPerimeter;whiteSpace=wrap;html=1;align=center;fontFamily=Helvetica;fontSize=11;fontColor=default;labelBackgroundColor=default;" parent="1" vertex="1">
          <mxGeometry x="206.5" y="157" width="90" height="40" as="geometry" />
        </mxCell>
        <mxCell id="fJpas_aMie5ZIC00HAkX-133" style="edgeStyle=none;shape=connector;rounded=0;orthogonalLoop=1;jettySize=auto;html=1;strokeColor=default;align=center;verticalAlign=middle;fontFamily=Helvetica;fontSize=11;fontColor=default;labelBackgroundColor=default;endArrow=none;endFill=0;exitX=1;exitY=0.5;exitDx=0;exitDy=0;" parent="1" source="fJpas_aMie5ZIC00HAkX-129" target="fJpas_aMie5ZIC00HAkX-21" edge="1">
          <mxGeometry relative="1" as="geometry" />
        </mxCell>
        <mxCell id="m6y0govJC5TdCKhgVr8m-17" style="edgeStyle=none;shape=connector;rounded=0;orthogonalLoop=1;jettySize=auto;html=1;strokeColor=default;align=center;verticalAlign=middle;fontFamily=Helvetica;fontSize=11;fontColor=default;labelBackgroundColor=default;endArrow=none;endFill=0;" parent="1" source="fJpas_aMie5ZIC00HAkX-129" target="m6y0govJC5TdCKhgVr8m-16" edge="1">
          <mxGeometry relative="1" as="geometry" />
        </mxCell>
        <mxCell id="fJpas_aMie5ZIC00HAkX-129" value="Is team B of" style="shape=rhombus;perimeter=rhombusPerimeter;whiteSpace=wrap;html=1;align=center;fontFamily=Helvetica;fontSize=11;fontColor=default;labelBackgroundColor=default;" parent="1" vertex="1">
          <mxGeometry x="257.5" y="185" width="90" height="40" as="geometry" />
        </mxCell>
        <mxCell id="fJpas_aMie5ZIC00HAkX-134" value="N" style="text;html=1;align=center;verticalAlign=middle;resizable=0;points=[];autosize=1;strokeColor=none;fillColor=none;fontFamily=Helvetica;fontSize=11;fontColor=default;labelBackgroundColor=default;" parent="1" vertex="1">
          <mxGeometry x="184" y="147" width="30" height="30" as="geometry" />
        </mxCell>
        <mxCell id="fJpas_aMie5ZIC00HAkX-137" value="1" style="text;html=1;align=center;verticalAlign=middle;resizable=0;points=[];autosize=1;strokeColor=none;fillColor=none;fontFamily=Helvetica;fontSize=11;fontColor=default;labelBackgroundColor=default;" parent="1" vertex="1">
          <mxGeometry x="284" y="147" width="30" height="30" as="geometry" />
        </mxCell>
        <mxCell id="fJpas_aMie5ZIC00HAkX-138" value="1" style="text;html=1;align=center;verticalAlign=middle;resizable=0;points=[];autosize=1;strokeColor=none;fillColor=none;fontFamily=Helvetica;fontSize=11;fontColor=default;labelBackgroundColor=default;" parent="1" vertex="1">
          <mxGeometry x="335" y="203" width="30" height="30" as="geometry" />
        </mxCell>
        <mxCell id="fJpas_aMie5ZIC00HAkX-139" value="N" style="text;html=1;align=center;verticalAlign=middle;resizable=0;points=[];autosize=1;strokeColor=none;fillColor=none;fontFamily=Helvetica;fontSize=11;fontColor=default;labelBackgroundColor=default;" parent="1" vertex="1">
          <mxGeometry x="240" y="205" width="30" height="30" as="geometry" />
        </mxCell>
        <mxCell id="fJpas_aMie5ZIC00HAkX-156" style="edgeStyle=none;shape=connector;rounded=0;orthogonalLoop=1;jettySize=auto;html=1;strokeColor=default;align=center;verticalAlign=middle;fontFamily=Helvetica;fontSize=11;fontColor=default;labelBackgroundColor=default;endArrow=none;endFill=0;exitX=1;exitY=0.5;exitDx=0;exitDy=0;" parent="1" source="fJpas_aMie5ZIC00HAkX-155" target="fJpas_aMie5ZIC00HAkX-21" edge="1">
          <mxGeometry relative="1" as="geometry" />
        </mxCell>
        <mxCell id="fJpas_aMie5ZIC00HAkX-157" style="edgeStyle=none;shape=connector;rounded=0;orthogonalLoop=1;jettySize=auto;html=1;strokeColor=default;align=center;verticalAlign=middle;fontFamily=Helvetica;fontSize=11;fontColor=default;labelBackgroundColor=default;endArrow=none;endFill=0;exitX=0;exitY=0.5;exitDx=0;exitDy=0;" parent="1" source="fJpas_aMie5ZIC00HAkX-155" target="fJpas_aMie5ZIC00HAkX-1" edge="1">
          <mxGeometry relative="1" as="geometry" />
        </mxCell>
        <mxCell id="fJpas_aMie5ZIC00HAkX-155" value="Is captain of" style="shape=rhombus;perimeter=rhombusPerimeter;whiteSpace=wrap;html=1;align=center;fontFamily=Helvetica;fontSize=11;fontColor=default;labelBackgroundColor=default;" parent="1" vertex="1">
          <mxGeometry x="349" y="-80" width="120" height="60" as="geometry" />
        </mxCell>
        <mxCell id="fJpas_aMie5ZIC00HAkX-158" value="1" style="text;html=1;align=center;verticalAlign=middle;resizable=0;points=[];autosize=1;strokeColor=none;fillColor=none;fontFamily=Helvetica;fontSize=11;fontColor=default;labelBackgroundColor=default;" parent="1" vertex="1">
          <mxGeometry x="449" y="-75" width="30" height="30" as="geometry" />
        </mxCell>
        <mxCell id="fJpas_aMie5ZIC00HAkX-159" value="1" style="text;html=1;align=center;verticalAlign=middle;resizable=0;points=[];autosize=1;strokeColor=none;fillColor=none;fontFamily=Helvetica;fontSize=11;fontColor=default;labelBackgroundColor=default;" parent="1" vertex="1">
          <mxGeometry x="334" y="-75" width="30" height="30" as="geometry" />
        </mxCell>
        <mxCell id="lP6sr1MbRHoWhHon_gvg-2" style="rounded=0;orthogonalLoop=1;jettySize=auto;html=1;entryX=1;entryY=0.25;entryDx=0;entryDy=0;endArrow=none;endFill=0;exitX=0.5;exitY=0;exitDx=0;exitDy=0;" parent="1" source="lP6sr1MbRHoWhHon_gvg-1" target="fJpas_aMie5ZIC00HAkX-38" edge="1">
          <mxGeometry relative="1" as="geometry" />
        </mxCell>
        <mxCell id="lP6sr1MbRHoWhHon_gvg-4" style="edgeStyle=none;shape=connector;rounded=0;orthogonalLoop=1;jettySize=auto;html=1;entryX=1;entryY=0.75;entryDx=0;entryDy=0;strokeColor=default;align=center;verticalAlign=middle;fontFamily=Helvetica;fontSize=11;fontColor=default;labelBackgroundColor=default;endArrow=none;endFill=0;exitX=0.5;exitY=1;exitDx=0;exitDy=0;" parent="1" source="lP6sr1MbRHoWhHon_gvg-1" target="fJpas_aMie5ZIC00HAkX-38" edge="1">
          <mxGeometry relative="1" as="geometry" />
        </mxCell>
        <mxCell id="lP6sr1MbRHoWhHon_gvg-1" value="Is parent region of" style="shape=rhombus;perimeter=rhombusPerimeter;whiteSpace=wrap;html=1;align=center;fontFamily=Helvetica;fontSize=11;fontColor=default;labelBackgroundColor=default;" parent="1" vertex="1">
          <mxGeometry x="926" y="527" width="120" height="84" as="geometry" />
        </mxCell>
        <mxCell id="lP6sr1MbRHoWhHon_gvg-5" value="N" style="text;html=1;align=center;verticalAlign=middle;resizable=0;points=[];autosize=1;strokeColor=none;fillColor=none;fontFamily=Helvetica;fontSize=11;fontColor=default;labelBackgroundColor=default;" parent="1" vertex="1">
          <mxGeometry x="979" y="606" width="30" height="30" as="geometry" />
        </mxCell>
        <mxCell id="lP6sr1MbRHoWhHon_gvg-6" value="1" style="text;html=1;align=center;verticalAlign=middle;resizable=0;points=[];autosize=1;strokeColor=none;fillColor=none;fontFamily=Helvetica;fontSize=11;fontColor=default;labelBackgroundColor=default;" parent="1" vertex="1">
          <mxGeometry x="976" y="497" width="30" height="30" as="geometry" />
        </mxCell>
        <mxCell id="lP6sr1MbRHoWhHon_gvg-7" value="Trophy" style="shape=ext;margin=3;double=1;whiteSpace=wrap;html=1;align=center;fontFamily=Helvetica;fontSize=11;fontColor=default;labelBackgroundColor=default;" parent="1" vertex="1">
          <mxGeometry x="456" y="367" width="100" height="40" as="geometry" />
        </mxCell>
        <mxCell id="lP6sr1MbRHoWhHon_gvg-9" style="edgeStyle=none;rounded=0;orthogonalLoop=1;jettySize=auto;html=1;strokeColor=default;align=center;verticalAlign=middle;fontFamily=Helvetica;fontSize=11;fontColor=default;labelBackgroundColor=default;endArrow=none;endFill=0;exitX=0;exitY=0.5;exitDx=0;exitDy=0;entryX=1;entryY=0;entryDx=0;entryDy=0;" parent="1" source="m6y0govJC5TdCKhgVr8m-12" target="lP6sr1MbRHoWhHon_gvg-7" edge="1">
          <mxGeometry relative="1" as="geometry">
            <mxPoint x="510" y="361" as="sourcePoint" />
          </mxGeometry>
        </mxCell>
        <mxCell id="lP6sr1MbRHoWhHon_gvg-10" style="edgeStyle=none;shape=connector;rounded=0;orthogonalLoop=1;jettySize=auto;html=1;strokeColor=default;align=center;verticalAlign=middle;fontFamily=Helvetica;fontSize=11;fontColor=default;labelBackgroundColor=default;endArrow=none;endFill=0;exitX=1;exitY=0.5;exitDx=0;exitDy=0;" parent="1" source="m6y0govJC5TdCKhgVr8m-12" target="fJpas_aMie5ZIC00HAkX-21" edge="1">
          <mxGeometry relative="1" as="geometry">
            <mxPoint x="630" y="90" as="sourcePoint" />
          </mxGeometry>
        </mxCell>
        <mxCell id="lP6sr1MbRHoWhHon_gvg-12" style="edgeStyle=none;shape=connector;rounded=0;orthogonalLoop=1;jettySize=auto;html=1;strokeColor=default;align=center;verticalAlign=middle;fontFamily=Helvetica;fontSize=11;fontColor=default;labelBackgroundColor=default;endArrow=none;endFill=0;" parent="1" source="lP6sr1MbRHoWhHon_gvg-11" target="lP6sr1MbRHoWhHon_gvg-7" edge="1">
          <mxGeometry relative="1" as="geometry" />
        </mxCell>
        <mxCell id="lP6sr1MbRHoWhHon_gvg-11" value="&lt;span style=&quot;border-bottom: 1px dotted&quot;&gt;trophyName&lt;/span&gt;" style="ellipse;whiteSpace=wrap;html=1;align=center;fontFamily=Helvetica;fontSize=11;fontColor=default;labelBackgroundColor=default;" parent="1" vertex="1">
          <mxGeometry x="466" y="424" width="80" height="40" as="geometry" />
        </mxCell>
        <mxCell id="lP6sr1MbRHoWhHon_gvg-14" style="edgeStyle=none;shape=connector;rounded=0;orthogonalLoop=1;jettySize=auto;html=1;strokeColor=default;align=center;verticalAlign=middle;fontFamily=Helvetica;fontSize=11;fontColor=default;labelBackgroundColor=default;endArrow=none;endFill=0;" parent="1" source="lP6sr1MbRHoWhHon_gvg-13" target="lP6sr1MbRHoWhHon_gvg-7" edge="1">
          <mxGeometry relative="1" as="geometry" />
        </mxCell>
        <mxCell id="lP6sr1MbRHoWhHon_gvg-13" value="dateAwarded" style="ellipse;whiteSpace=wrap;html=1;align=center;fontFamily=Helvetica;fontSize=11;fontColor=default;labelBackgroundColor=default;" parent="1" vertex="1">
          <mxGeometry x="561.5" y="424" width="80" height="40" as="geometry" />
        </mxCell>
        <mxCell id="lP6sr1MbRHoWhHon_gvg-15" value="N" style="text;html=1;align=center;verticalAlign=middle;resizable=0;points=[];autosize=1;strokeColor=none;fillColor=none;fontFamily=Helvetica;fontSize=11;fontColor=default;labelBackgroundColor=default;" parent="1" vertex="1">
          <mxGeometry x="601" y="238" width="30" height="30" as="geometry" />
        </mxCell>
        <mxCell id="lP6sr1MbRHoWhHon_gvg-16" value="1" style="text;html=1;align=center;verticalAlign=middle;resizable=0;points=[];autosize=1;strokeColor=none;fillColor=none;fontFamily=Helvetica;fontSize=11;fontColor=default;labelBackgroundColor=default;" parent="1" vertex="1">
          <mxGeometry x="718" y="237" width="30" height="30" as="geometry" />
        </mxCell>
        <mxCell id="m6y0govJC5TdCKhgVr8m-5" style="rounded=0;orthogonalLoop=1;jettySize=auto;html=1;entryX=0;entryY=1;entryDx=0;entryDy=0;shape=link;exitX=1;exitY=0.5;exitDx=0;exitDy=0;" parent="1" source="m6y0govJC5TdCKhgVr8m-11" target="lP6sr1MbRHoWhHon_gvg-7" edge="1">
          <mxGeometry relative="1" as="geometry">
            <mxPoint x="798.5381165919284" y="743.269058295964" as="sourcePoint" />
          </mxGeometry>
        </mxCell>
        <mxCell id="m6y0govJC5TdCKhgVr8m-12" value="Is awarded to" style="shape=rhombus;perimeter=rhombusPerimeter;whiteSpace=wrap;html=1;align=center;" parent="1" vertex="1">
          <mxGeometry x="618" y="238" width="120" height="60" as="geometry" />
        </mxCell>
        <mxCell id="m6y0govJC5TdCKhgVr8m-14" value="result" style="ellipse;whiteSpace=wrap;html=1;align=center;" parent="1" vertex="1">
          <mxGeometry x="221" y="123" width="61" height="28" as="geometry" />
        </mxCell>
        <mxCell id="m6y0govJC5TdCKhgVr8m-16" value="result" style="ellipse;whiteSpace=wrap;html=1;align=center;" parent="1" vertex="1">
          <mxGeometry x="272" y="230" width="61" height="28" as="geometry" />
        </mxCell>
        <mxCell id="NF3LTUQ_bPjJrq3eggiO-5" value="" style="group" parent="1" vertex="1" connectable="0">
          <mxGeometry x="315" y="281" width="170" height="62" as="geometry" />
        </mxCell>
        <mxCell id="fJpas_aMie5ZIC00HAkX-104" value="Compete in" style="shape=rhombus;perimeter=rhombusPerimeter;whiteSpace=wrap;html=1;align=center;fontFamily=Helvetica;fontSize=11;fontColor=default;labelBackgroundColor=default;" parent="NF3LTUQ_bPjJrq3eggiO-5" vertex="1">
          <mxGeometry x="32.5" width="120" height="60" as="geometry" />
        </mxCell>
        <mxCell id="fJpas_aMie5ZIC00HAkX-107" value="M" style="text;html=1;align=center;verticalAlign=middle;resizable=0;points=[];autosize=1;strokeColor=none;fillColor=none;fontFamily=Helvetica;fontSize=11;fontColor=default;labelBackgroundColor=default;" parent="NF3LTUQ_bPjJrq3eggiO-5" vertex="1">
          <mxGeometry x="138" width="30" height="30" as="geometry" />
        </mxCell>
        <mxCell id="fJpas_aMie5ZIC00HAkX-108" value="&lt;div&gt;N&lt;/div&gt;" style="text;html=1;align=center;verticalAlign=middle;resizable=0;points=[];autosize=1;strokeColor=none;fillColor=none;fontFamily=Helvetica;fontSize=11;fontColor=default;labelBackgroundColor=default;" parent="NF3LTUQ_bPjJrq3eggiO-5" vertex="1">
          <mxGeometry x="9" y="4" width="30" height="30" as="geometry" />
        </mxCell>
        <mxCell id="NF3LTUQ_bPjJrq3eggiO-6" value="" style="group" parent="1" vertex="1" connectable="0">
          <mxGeometry x="160" y="433" width="151.5" height="60" as="geometry" />
        </mxCell>
        <mxCell id="m6y0govJC5TdCKhgVr8m-7" value="1" style="text;html=1;align=center;verticalAlign=middle;resizable=0;points=[];autosize=1;strokeColor=none;fillColor=none;" parent="NF3LTUQ_bPjJrq3eggiO-6" vertex="1">
          <mxGeometry x="19" y="34" width="25" height="26" as="geometry" />
        </mxCell>
        <mxCell id="m6y0govJC5TdCKhgVr8m-11" value="&lt;div&gt;Has&lt;/div&gt;" style="shape=rhombus;double=1;perimeter=rhombusPerimeter;whiteSpace=wrap;html=1;align=center;fontFamily=Helvetica;fontSize=11;fontColor=default;labelBackgroundColor=default;" parent="NF3LTUQ_bPjJrq3eggiO-6" vertex="1">
          <mxGeometry x="31.5" width="120" height="60" as="geometry" />
        </mxCell>
        <mxCell id="NF3LTUQ_bPjJrq3eggiO-7" style="edgeStyle=none;shape=connector;rounded=0;orthogonalLoop=1;jettySize=auto;html=1;exitX=0;exitY=0.5;exitDx=0;exitDy=0;strokeColor=default;align=center;verticalAlign=middle;fontFamily=Helvetica;fontSize=11;fontColor=default;labelBackgroundColor=default;endArrow=none;endFill=0;" parent="1" source="fJpas_aMie5ZIC00HAkX-81" target="fJpas_aMie5ZIC00HAkX-81" edge="1">
          <mxGeometry relative="1" as="geometry" />
        </mxCell>
        <mxCell id="m6y0govJC5TdCKhgVr8m-10" value="1" style="text;html=1;align=center;verticalAlign=middle;resizable=0;points=[];autosize=1;strokeColor=none;fillColor=none;" parent="1" vertex="1">
          <mxGeometry x="305.5" y="467" width="25" height="26" as="geometry" />
        </mxCell>
        <mxCell id="almNn-rgEYb41o_lLEZz-1" value="Major Region" style="text;html=1;align=center;verticalAlign=middle;resizable=0;points=[];autosize=1;strokeColor=none;fillColor=none;" parent="1" vertex="1">
          <mxGeometry x="882" y="506" width="89" height="26" as="geometry" />
        </mxCell>
        <mxCell id="almNn-rgEYb41o_lLEZz-2" value="Minor Region" style="text;html=1;align=center;verticalAlign=middle;resizable=0;points=[];autosize=1;strokeColor=none;fillColor=none;" parent="1" vertex="1">
          <mxGeometry x="869" y="606" width="89" height="26" as="geometry" />
        </mxCell>
        <mxCell id="GLH18F7WEQvQGdg0PGkz-2" style="rounded=0;orthogonalLoop=1;jettySize=auto;html=1;endArrow=none;endFill=0;" parent="1" source="GLH18F7WEQvQGdg0PGkz-1" target="fJpas_aMie5ZIC00HAkX-104" edge="1">
          <mxGeometry relative="1" as="geometry" />
        </mxCell>
        <mxCell id="GLH18F7WEQvQGdg0PGkz-1" value="rank" style="ellipse;whiteSpace=wrap;html=1;align=center;" parent="1" vertex="1">
          <mxGeometry x="342" y="349" width="61" height="28" as="geometry" />
        </mxCell>
        <mxCell id="GLH18F7WEQvQGdg0PGkz-5" style="rounded=0;orthogonalLoop=1;jettySize=auto;html=1;endArrow=none;endFill=0;" parent="1" source="GLH18F7WEQvQGdg0PGkz-3" target="fJpas_aMie5ZIC00HAkX-21" edge="1">
          <mxGeometry relative="1" as="geometry" />
        </mxCell>
        <mxCell id="GLH18F7WEQvQGdg0PGkz-3" value="numberOfTrophy" style="ellipse;whiteSpace=wrap;html=1;align=center;dashed=1;fontFamily=Helvetica;fontSize=11;fontColor=default;labelBackgroundColor=default;" parent="1" vertex="1">
          <mxGeometry x="884" y="88" width="100" height="40" as="geometry" />
        </mxCell>
        <mxCell id="GLH18F7WEQvQGdg0PGkz-7" style="edgeStyle=none;shape=connector;rounded=0;orthogonalLoop=1;jettySize=auto;html=1;strokeColor=default;align=center;verticalAlign=middle;fontFamily=Helvetica;fontSize=11;fontColor=default;labelBackgroundColor=default;endArrow=none;endFill=0;" parent="1" source="GLH18F7WEQvQGdg0PGkz-6" target="fJpas_aMie5ZIC00HAkX-21" edge="1">
          <mxGeometry relative="1" as="geometry" />
        </mxCell>
        <mxCell id="GLH18F7WEQvQGdg0PGkz-6" value="numberOfPlayer" style="ellipse;whiteSpace=wrap;html=1;align=center;dashed=1;fontFamily=Helvetica;fontSize=11;fontColor=default;labelBackgroundColor=default;" parent="1" vertex="1">
          <mxGeometry x="863.5" y="132" width="100" height="40" as="geometry" />
        </mxCell>
        <mxCell id="GLH18F7WEQvQGdg0PGkz-9" style="edgeStyle=none;shape=connector;rounded=0;orthogonalLoop=1;jettySize=auto;html=1;strokeColor=default;align=center;verticalAlign=middle;fontFamily=Helvetica;fontSize=11;fontColor=default;labelBackgroundColor=default;endArrow=none;endFill=0;" parent="1" source="GLH18F7WEQvQGdg0PGkz-8" target="fJpas_aMie5ZIC00HAkX-38" edge="1">
          <mxGeometry relative="1" as="geometry" />
        </mxCell>
        <mxCell id="GLH18F7WEQvQGdg0PGkz-8" value="description" style="ellipse;whiteSpace=wrap;html=1;align=center;fontFamily=Helvetica;fontSize=11;fontColor=default;labelBackgroundColor=default;" parent="1" vertex="1">
          <mxGeometry x="716" y="484" width="80" height="40" as="geometry" />
        </mxCell>
        <mxCell id="GLH18F7WEQvQGdg0PGkz-11" style="edgeStyle=none;shape=connector;rounded=0;orthogonalLoop=1;jettySize=auto;html=1;strokeColor=default;align=center;verticalAlign=middle;fontFamily=Helvetica;fontSize=11;fontColor=default;labelBackgroundColor=default;endArrow=none;endFill=0;" parent="1" source="GLH18F7WEQvQGdg0PGkz-10" target="fJpas_aMie5ZIC00HAkX-38" edge="1">
          <mxGeometry relative="1" as="geometry" />
        </mxCell>
        <mxCell id="GLH18F7WEQvQGdg0PGkz-10" value="numberOfTeams" style="ellipse;whiteSpace=wrap;html=1;align=center;dashed=1;fontFamily=Helvetica;fontSize=11;fontColor=default;labelBackgroundColor=default;" parent="1" vertex="1">
          <mxGeometry x="676.5" y="599" width="100" height="40" as="geometry" />
        </mxCell>
        <mxCell id="wX9nulocx6VRCnXDJnAP-8" style="edgeStyle=none;shape=connector;rounded=0;orthogonalLoop=1;jettySize=auto;html=1;strokeColor=default;align=center;verticalAlign=middle;fontFamily=Helvetica;fontSize=11;fontColor=default;labelBackgroundColor=default;endArrow=none;endFill=0;exitX=1;exitY=0.5;exitDx=0;exitDy=0;" parent="1" source="XT3MhefaFS9jrLEFvtJ--24" target="fJpas_aMie5ZIC00HAkX-47" edge="1">
          <mxGeometry relative="1" as="geometry">
            <mxPoint x="-117.99999999999977" y="586" as="sourcePoint" />
          </mxGeometry>
        </mxCell>
        <mxCell id="wX9nulocx6VRCnXDJnAP-9" value="N" style="text;html=1;align=center;verticalAlign=middle;resizable=0;points=[];autosize=1;strokeColor=none;fillColor=none;fontFamily=Helvetica;fontSize=11;fontColor=default;labelBackgroundColor=default;" parent="1" vertex="1">
          <mxGeometry x="-255" y="586" width="26" height="25" as="geometry" />
        </mxCell>
        <mxCell id="wX9nulocx6VRCnXDJnAP-10" value="1" style="text;html=1;align=center;verticalAlign=middle;resizable=0;points=[];autosize=1;strokeColor=none;fillColor=none;fontFamily=Helvetica;fontSize=11;fontColor=default;labelBackgroundColor=default;" parent="1" vertex="1">
          <mxGeometry x="-126" y="587" width="24" height="25" as="geometry" />
        </mxCell>
        <mxCell id="wX9nulocx6VRCnXDJnAP-12" value="" style="group" parent="1" vertex="1" connectable="0">
          <mxGeometry x="-76.5" y="377" width="120" height="107" as="geometry" />
        </mxCell>
        <mxCell id="fJpas_aMie5ZIC00HAkX-125" value="Took place in" style="shape=rhombus;perimeter=rhombusPerimeter;whiteSpace=wrap;html=1;align=center;fontFamily=Helvetica;fontSize=11;fontColor=default;labelBackgroundColor=default;" parent="wX9nulocx6VRCnXDJnAP-12" vertex="1">
          <mxGeometry y="19" width="120" height="60" as="geometry" />
        </mxCell>
        <mxCell id="wX9nulocx6VRCnXDJnAP-13" value="" style="group" parent="1" vertex="1" connectable="0">
          <mxGeometry x="-74.75" y="147" width="120" height="107" as="geometry" />
        </mxCell>
        <mxCell id="wX9nulocx6VRCnXDJnAP-14" value="Take part in" style="shape=rhombus;perimeter=rhombusPerimeter;whiteSpace=wrap;html=1;align=center;fontFamily=Helvetica;fontSize=11;fontColor=default;labelBackgroundColor=default;" parent="wX9nulocx6VRCnXDJnAP-13" vertex="1">
          <mxGeometry y="19" width="120" height="60" as="geometry" />
        </mxCell>
        <mxCell id="wX9nulocx6VRCnXDJnAP-15" value="N" style="text;html=1;align=center;verticalAlign=middle;resizable=0;points=[];autosize=1;strokeColor=none;fillColor=none;fontFamily=Helvetica;fontSize=11;fontColor=default;labelBackgroundColor=default;" parent="wX9nulocx6VRCnXDJnAP-13" vertex="1">
          <mxGeometry x="57.5" width="30" height="30" as="geometry" />
        </mxCell>
        <mxCell id="wX9nulocx6VRCnXDJnAP-16" value="N" style="text;html=1;align=center;verticalAlign=middle;resizable=0;points=[];autosize=1;strokeColor=none;fillColor=none;fontFamily=Helvetica;fontSize=11;fontColor=default;labelBackgroundColor=default;" parent="wX9nulocx6VRCnXDJnAP-13" vertex="1">
          <mxGeometry x="59.5" y="80" width="26" height="25" as="geometry" />
        </mxCell>
        <mxCell id="wX9nulocx6VRCnXDJnAP-18" style="edgeStyle=none;shape=connector;rounded=0;orthogonalLoop=1;jettySize=auto;html=1;strokeColor=default;align=center;verticalAlign=middle;fontFamily=Helvetica;fontSize=11;fontColor=default;labelBackgroundColor=default;endArrow=none;endFill=0;" parent="1" source="wX9nulocx6VRCnXDJnAP-14" target="fJpas_aMie5ZIC00HAkX-1" edge="1">
          <mxGeometry relative="1" as="geometry" />
        </mxCell>
        <mxCell id="wX9nulocx6VRCnXDJnAP-24" style="edgeStyle=none;shape=connector;rounded=0;orthogonalLoop=1;jettySize=auto;html=1;strokeColor=default;align=center;verticalAlign=middle;fontFamily=Helvetica;fontSize=11;fontColor=default;labelBackgroundColor=default;endArrow=none;endFill=0;" parent="1" source="wX9nulocx6VRCnXDJnAP-19" target="fJpas_aMie5ZIC00HAkX-120" edge="1">
          <mxGeometry relative="1" as="geometry" />
        </mxCell>
        <mxCell id="wX9nulocx6VRCnXDJnAP-19" value="d" style="ellipse;whiteSpace=wrap;html=1;aspect=fixed;fontFamily=Helvetica;fontSize=11;fontColor=default;labelBackgroundColor=default;" parent="1" vertex="1">
          <mxGeometry x="-206" y="277" width="40" height="40" as="geometry" />
        </mxCell>
        <mxCell id="wX9nulocx6VRCnXDJnAP-23" style="edgeStyle=none;shape=connector;rounded=0;orthogonalLoop=1;jettySize=auto;html=1;strokeColor=default;align=center;verticalAlign=middle;fontFamily=Helvetica;fontSize=11;fontColor=default;labelBackgroundColor=default;endArrow=none;endFill=0;" parent="1" source="wX9nulocx6VRCnXDJnAP-20" target="wX9nulocx6VRCnXDJnAP-19" edge="1">
          <mxGeometry relative="1" as="geometry" />
        </mxCell>
        <mxCell id="XT3MhefaFS9jrLEFvtJ--3" style="rounded=0;orthogonalLoop=1;jettySize=auto;html=1;endArrow=none;endFill=0;" edge="1" parent="1" source="wX9nulocx6VRCnXDJnAP-20" target="XT3MhefaFS9jrLEFvtJ--2">
          <mxGeometry relative="1" as="geometry" />
        </mxCell>
        <mxCell id="wX9nulocx6VRCnXDJnAP-20" value="Group Stage Match" style="whiteSpace=wrap;html=1;align=center;fontFamily=Helvetica;fontSize=11;fontColor=default;labelBackgroundColor=default;flipV=1;" parent="1" vertex="1">
          <mxGeometry x="-379.5" y="277" width="65" height="40" as="geometry" />
        </mxCell>
        <mxCell id="wX9nulocx6VRCnXDJnAP-22" style="edgeStyle=none;shape=connector;rounded=0;orthogonalLoop=1;jettySize=auto;html=1;strokeColor=default;align=center;verticalAlign=middle;fontFamily=Helvetica;fontSize=11;fontColor=default;labelBackgroundColor=default;endArrow=none;endFill=0;" parent="1" source="wX9nulocx6VRCnXDJnAP-21" target="wX9nulocx6VRCnXDJnAP-19" edge="1">
          <mxGeometry relative="1" as="geometry" />
        </mxCell>
        <mxCell id="wX9nulocx6VRCnXDJnAP-21" value="Knockout Stage Match" style="whiteSpace=wrap;html=1;align=center;fontFamily=Helvetica;fontSize=11;fontColor=default;labelBackgroundColor=default;flipV=1;" parent="1" vertex="1">
          <mxGeometry x="-218.5" y="348" width="65" height="40" as="geometry" />
        </mxCell>
        <mxCell id="wX9nulocx6VRCnXDJnAP-31" style="edgeStyle=none;shape=connector;rounded=0;orthogonalLoop=1;jettySize=auto;html=1;strokeColor=default;align=center;verticalAlign=middle;fontFamily=Helvetica;fontSize=11;fontColor=default;labelBackgroundColor=default;endArrow=none;endFill=0;" parent="1" source="wX9nulocx6VRCnXDJnAP-30" target="fJpas_aMie5ZIC00HAkX-120" edge="1">
          <mxGeometry relative="1" as="geometry" />
        </mxCell>
        <mxCell id="wX9nulocx6VRCnXDJnAP-30" value="bestOf" style="ellipse;whiteSpace=wrap;html=1;align=center;fontFamily=Helvetica;fontSize=11;fontColor=default;labelBackgroundColor=default;flipV=1;" parent="1" vertex="1">
          <mxGeometry x="-44.75" y="330.5" width="60" height="40" as="geometry" />
        </mxCell>
        <mxCell id="fJpas_aMie5ZIC00HAkX-140" value="N" style="text;html=1;align=center;verticalAlign=middle;resizable=0;points=[];autosize=1;strokeColor=none;fillColor=none;fontFamily=Helvetica;fontSize=11;fontColor=default;labelBackgroundColor=default;" parent="1" vertex="1">
          <mxGeometry x="-104" y="418" width="30" height="30" as="geometry" />
        </mxCell>
        <mxCell id="fJpas_aMie5ZIC00HAkX-141" value="1" style="text;html=1;align=center;verticalAlign=middle;resizable=0;points=[];autosize=1;strokeColor=none;fillColor=none;fontFamily=Helvetica;fontSize=11;fontColor=default;labelBackgroundColor=default;" parent="1" vertex="1">
          <mxGeometry x="36" y="426" width="30" height="30" as="geometry" />
        </mxCell>
        <mxCell id="XT3MhefaFS9jrLEFvtJ--1" value="" style="group" vertex="1" connectable="0" parent="1">
          <mxGeometry x="-407" y="367" width="120" height="107" as="geometry" />
        </mxCell>
        <mxCell id="XT3MhefaFS9jrLEFvtJ--2" value="Took place in" style="shape=rhombus;perimeter=rhombusPerimeter;whiteSpace=wrap;html=1;align=center;fontFamily=Helvetica;fontSize=11;fontColor=default;labelBackgroundColor=default;" vertex="1" parent="XT3MhefaFS9jrLEFvtJ--1">
          <mxGeometry y="19" width="120" height="60" as="geometry" />
        </mxCell>
        <mxCell id="XT3MhefaFS9jrLEFvtJ--7" style="edgeStyle=none;shape=connector;rounded=0;orthogonalLoop=1;jettySize=auto;html=1;strokeColor=default;align=center;verticalAlign=middle;fontFamily=Helvetica;fontSize=11;fontColor=default;labelBackgroundColor=default;endArrow=none;endFill=0;" edge="1" parent="1" source="XT3MhefaFS9jrLEFvtJ--5" target="XT3MhefaFS9jrLEFvtJ--2">
          <mxGeometry relative="1" as="geometry" />
        </mxCell>
        <mxCell id="XT3MhefaFS9jrLEFvtJ--5" value="Group" style="whiteSpace=wrap;html=1;align=center;fontFamily=Helvetica;fontSize=11;fontColor=default;labelBackgroundColor=default;flipV=1;" vertex="1" parent="1">
          <mxGeometry x="-379.5" y="566" width="65" height="40" as="geometry" />
        </mxCell>
        <mxCell id="XT3MhefaFS9jrLEFvtJ--6" style="edgeStyle=none;shape=link;rounded=0;orthogonalLoop=1;jettySize=auto;html=1;strokeColor=default;align=center;verticalAlign=middle;fontFamily=Helvetica;fontSize=11;fontColor=default;labelBackgroundColor=default;endArrow=none;endFill=0;exitX=0;exitY=0.5;exitDx=0;exitDy=0;" edge="1" parent="1" source="XT3MhefaFS9jrLEFvtJ--24" target="XT3MhefaFS9jrLEFvtJ--5">
          <mxGeometry relative="1" as="geometry">
            <mxPoint x="-237.29824561403484" y="586.3508771929824" as="sourcePoint" />
          </mxGeometry>
        </mxCell>
        <mxCell id="XT3MhefaFS9jrLEFvtJ--8" value="1" style="text;html=1;align=center;verticalAlign=middle;resizable=0;points=[];autosize=1;strokeColor=none;fillColor=none;fontFamily=Helvetica;fontSize=11;fontColor=default;labelBackgroundColor=default;" vertex="1" parent="1">
          <mxGeometry x="-354" y="441" width="24" height="25" as="geometry" />
        </mxCell>
        <mxCell id="XT3MhefaFS9jrLEFvtJ--9" value="N" style="text;html=1;align=center;verticalAlign=middle;resizable=0;points=[];autosize=1;strokeColor=none;fillColor=none;fontFamily=Helvetica;fontSize=11;fontColor=default;labelBackgroundColor=default;" vertex="1" parent="1">
          <mxGeometry x="-355" y="367" width="26" height="25" as="geometry" />
        </mxCell>
        <mxCell id="XT3MhefaFS9jrLEFvtJ--13" style="edgeStyle=none;shape=link;rounded=0;orthogonalLoop=1;jettySize=auto;html=1;entryX=0;entryY=0.5;entryDx=0;entryDy=0;strokeColor=default;align=center;verticalAlign=middle;fontFamily=Helvetica;fontSize=11;fontColor=default;labelBackgroundColor=default;endArrow=none;endFill=0;" edge="1" parent="1" source="XT3MhefaFS9jrLEFvtJ--10" target="XT3MhefaFS9jrLEFvtJ--12">
          <mxGeometry relative="1" as="geometry" />
        </mxCell>
        <mxCell id="XT3MhefaFS9jrLEFvtJ--10" value="Game" style="whiteSpace=wrap;html=1;align=center;fontFamily=Helvetica;fontSize=11;fontColor=default;labelBackgroundColor=default;" vertex="1" parent="1">
          <mxGeometry x="-332" y="170" width="100" height="40" as="geometry" />
        </mxCell>
        <mxCell id="XT3MhefaFS9jrLEFvtJ--15" style="edgeStyle=none;shape=connector;rounded=0;orthogonalLoop=1;jettySize=auto;html=1;strokeColor=default;align=center;verticalAlign=middle;fontFamily=Helvetica;fontSize=11;fontColor=default;labelBackgroundColor=default;endArrow=none;endFill=0;exitX=1;exitY=0.5;exitDx=0;exitDy=0;" edge="1" parent="1" source="XT3MhefaFS9jrLEFvtJ--12" target="fJpas_aMie5ZIC00HAkX-120">
          <mxGeometry relative="1" as="geometry" />
        </mxCell>
        <mxCell id="XT3MhefaFS9jrLEFvtJ--12" value="Be a part of" style="shape=rhombus;perimeter=rhombusPerimeter;whiteSpace=wrap;html=1;align=center;fontFamily=Helvetica;fontSize=11;fontColor=default;labelBackgroundColor=default;" vertex="1" parent="1">
          <mxGeometry x="-219.5" y="212" width="89" height="46" as="geometry" />
        </mxCell>
        <mxCell id="XT3MhefaFS9jrLEFvtJ--16" value="1" style="text;html=1;align=center;verticalAlign=middle;resizable=0;points=[];autosize=1;strokeColor=none;fillColor=none;fontFamily=Helvetica;fontSize=11;fontColor=default;labelBackgroundColor=default;" vertex="1" parent="1">
          <mxGeometry x="-143" y="213" width="24" height="25" as="geometry" />
        </mxCell>
        <mxCell id="XT3MhefaFS9jrLEFvtJ--17" value="N" style="text;html=1;align=center;verticalAlign=middle;resizable=0;points=[];autosize=1;strokeColor=none;fillColor=none;fontFamily=Helvetica;fontSize=11;fontColor=default;labelBackgroundColor=default;" vertex="1" parent="1">
          <mxGeometry x="-232" y="210" width="26" height="25" as="geometry" />
        </mxCell>
        <mxCell id="XT3MhefaFS9jrLEFvtJ--19" style="edgeStyle=none;shape=connector;rounded=0;orthogonalLoop=1;jettySize=auto;html=1;strokeColor=default;align=center;verticalAlign=middle;fontFamily=Helvetica;fontSize=11;fontColor=default;labelBackgroundColor=default;endArrow=none;endFill=0;exitX=1;exitY=0.5;exitDx=0;exitDy=0;" edge="1" parent="1" source="XT3MhefaFS9jrLEFvtJ--18" target="fJpas_aMie5ZIC00HAkX-1">
          <mxGeometry relative="1" as="geometry" />
        </mxCell>
        <mxCell id="XT3MhefaFS9jrLEFvtJ--20" style="edgeStyle=none;shape=connector;rounded=0;orthogonalLoop=1;jettySize=auto;html=1;strokeColor=default;align=center;verticalAlign=middle;fontFamily=Helvetica;fontSize=11;fontColor=default;labelBackgroundColor=default;endArrow=none;endFill=0;exitX=0;exitY=0.5;exitDx=0;exitDy=0;" edge="1" parent="1" source="XT3MhefaFS9jrLEFvtJ--18" target="XT3MhefaFS9jrLEFvtJ--10">
          <mxGeometry relative="1" as="geometry" />
        </mxCell>
        <mxCell id="XT3MhefaFS9jrLEFvtJ--18" value="Play in" style="shape=rhombus;perimeter=rhombusPerimeter;whiteSpace=wrap;html=1;align=center;fontFamily=Helvetica;fontSize=11;fontColor=default;labelBackgroundColor=default;" vertex="1" parent="1">
          <mxGeometry x="-221" y="125" width="89" height="46" as="geometry" />
        </mxCell>
        <mxCell id="XT3MhefaFS9jrLEFvtJ--21" value="N" style="text;html=1;align=center;verticalAlign=middle;resizable=0;points=[];autosize=1;strokeColor=none;fillColor=none;fontFamily=Helvetica;fontSize=11;fontColor=default;labelBackgroundColor=default;" vertex="1" parent="1">
          <mxGeometry x="-234" y="147" width="26" height="25" as="geometry" />
        </mxCell>
        <mxCell id="XT3MhefaFS9jrLEFvtJ--22" value="M" style="text;html=1;align=center;verticalAlign=middle;resizable=0;points=[];autosize=1;strokeColor=none;fillColor=none;fontFamily=Helvetica;fontSize=11;fontColor=default;labelBackgroundColor=default;" vertex="1" parent="1">
          <mxGeometry x="-130.5" y="144" width="27" height="25" as="geometry" />
        </mxCell>
        <mxCell id="XT3MhefaFS9jrLEFvtJ--23" value="" style="group" vertex="1" connectable="0" parent="1">
          <mxGeometry x="-239" y="537" width="120" height="107" as="geometry" />
        </mxCell>
        <mxCell id="XT3MhefaFS9jrLEFvtJ--24" value="Took place in" style="shape=rhombus;perimeter=rhombusPerimeter;whiteSpace=wrap;html=1;align=center;fontFamily=Helvetica;fontSize=11;fontColor=default;labelBackgroundColor=default;" vertex="1" parent="XT3MhefaFS9jrLEFvtJ--23">
          <mxGeometry y="19" width="120" height="60" as="geometry" />
        </mxCell>
        <mxCell id="XT3MhefaFS9jrLEFvtJ--27" style="edgeStyle=none;shape=connector;rounded=0;orthogonalLoop=1;jettySize=auto;html=1;strokeColor=default;align=center;verticalAlign=middle;fontFamily=Helvetica;fontSize=11;fontColor=default;labelBackgroundColor=default;endArrow=none;endFill=0;exitX=0;exitY=0.5;exitDx=0;exitDy=0;" edge="1" parent="1" source="XT3MhefaFS9jrLEFvtJ--25" target="XT3MhefaFS9jrLEFvtJ--5">
          <mxGeometry relative="1" as="geometry">
            <Array as="points">
              <mxPoint x="-418" y="-132" />
              <mxPoint x="-420" y="587" />
            </Array>
          </mxGeometry>
        </mxCell>
        <mxCell id="XT3MhefaFS9jrLEFvtJ--38" style="edgeStyle=orthogonalEdgeStyle;rounded=0;hachureGap=4;orthogonalLoop=1;jettySize=auto;html=1;fontFamily=Architects Daughter;fontSource=https%3A%2F%2Ffonts.googleapis.com%2Fcss%3Ffamily%3DArchitects%2BDaughter;endArrow=none;endFill=0;" edge="1" parent="1" source="XT3MhefaFS9jrLEFvtJ--25" target="fJpas_aMie5ZIC00HAkX-21">
          <mxGeometry relative="1" as="geometry" />
        </mxCell>
        <mxCell id="XT3MhefaFS9jrLEFvtJ--25" value="Belongs to" style="shape=rhombus;perimeter=rhombusPerimeter;whiteSpace=wrap;html=1;align=center;fontFamily=Helvetica;fontSize=11;fontColor=default;labelBackgroundColor=default;" vertex="1" parent="1">
          <mxGeometry x="185.5" y="-163" width="120" height="60" as="geometry" />
        </mxCell>
        <mxCell id="XT3MhefaFS9jrLEFvtJ--29" style="edgeStyle=none;shape=connector;rounded=0;orthogonalLoop=1;jettySize=auto;html=1;strokeColor=default;align=center;verticalAlign=middle;fontFamily=Helvetica;fontSize=11;fontColor=default;labelBackgroundColor=default;endArrow=none;endFill=0;" edge="1" parent="1" source="XT3MhefaFS9jrLEFvtJ--28" target="fJpas_aMie5ZIC00HAkX-21">
          <mxGeometry relative="1" as="geometry" />
        </mxCell>
        <mxCell id="XT3MhefaFS9jrLEFvtJ--28" value="teamName" style="ellipse;whiteSpace=wrap;html=1;align=center;fontFamily=Helvetica;fontSize=11;fontColor=default;labelBackgroundColor=default;flipV=1;" vertex="1" parent="1">
          <mxGeometry x="884" y="-73" width="60" height="40" as="geometry" />
        </mxCell>
        <mxCell id="XT3MhefaFS9jrLEFvtJ--39" value="M" style="text;html=1;align=center;verticalAlign=middle;resizable=0;points=[];autosize=1;strokeColor=none;fillColor=none;fontFamily=Helvetica;" vertex="1" parent="1">
          <mxGeometry x="285" y="-162" width="30" height="30" as="geometry" />
        </mxCell>
        <mxCell id="XT3MhefaFS9jrLEFvtJ--40" value="N" style="text;html=1;align=center;verticalAlign=middle;resizable=0;points=[];autosize=1;strokeColor=none;fillColor=none;fontFamily=Helvetica;" vertex="1" parent="1">
          <mxGeometry x="165" y="-162" width="30" height="30" as="geometry" />
        </mxCell>
        <mxCell id="XT3MhefaFS9jrLEFvtJ--43" style="rounded=0;orthogonalLoop=1;jettySize=auto;html=1;endArrow=none;endFill=0;" edge="1" parent="1" source="XT3MhefaFS9jrLEFvtJ--41" target="XT3MhefaFS9jrLEFvtJ--5">
          <mxGeometry relative="1" as="geometry" />
        </mxCell>
        <mxCell id="XT3MhefaFS9jrLEFvtJ--41" value="groupId" style="ellipse;whiteSpace=wrap;html=1;align=center;fontStyle=4;fontFamily=Helvetica;fontSize=11;fontColor=default;labelBackgroundColor=default;flipV=1;" vertex="1" parent="1">
          <mxGeometry x="-332" y="620" width="90" height="40" as="geometry" />
        </mxCell>
        <mxCell id="XT3MhefaFS9jrLEFvtJ--45" style="edgeStyle=none;shape=connector;rounded=0;orthogonalLoop=1;jettySize=auto;html=1;strokeColor=default;align=center;verticalAlign=middle;fontFamily=Helvetica;fontSize=11;fontColor=default;labelBackgroundColor=default;endArrow=none;endFill=0;" edge="1" parent="1" source="XT3MhefaFS9jrLEFvtJ--44" target="XT3MhefaFS9jrLEFvtJ--5">
          <mxGeometry relative="1" as="geometry" />
        </mxCell>
        <mxCell id="XT3MhefaFS9jrLEFvtJ--44" value="groupName" style="ellipse;whiteSpace=wrap;html=1;align=center;fontFamily=Helvetica;fontSize=11;fontColor=default;labelBackgroundColor=default;flipV=1;" vertex="1" parent="1">
          <mxGeometry x="-377" y="660" width="60" height="40" as="geometry" />
        </mxCell>
        <mxCell id="XT3MhefaFS9jrLEFvtJ--53" style="edgeStyle=none;shape=connector;rounded=0;orthogonalLoop=1;jettySize=auto;html=1;strokeColor=default;align=center;verticalAlign=middle;fontFamily=Helvetica;fontSize=11;fontColor=default;labelBackgroundColor=default;endArrow=none;endFill=0;" edge="1" parent="1" source="XT3MhefaFS9jrLEFvtJ--46" target="XT3MhefaFS9jrLEFvtJ--25">
          <mxGeometry relative="1" as="geometry" />
        </mxCell>
        <mxCell id="XT3MhefaFS9jrLEFvtJ--46" value="point" style="ellipse;whiteSpace=wrap;html=1;align=center;fontFamily=Helvetica;fontSize=11;fontColor=default;labelBackgroundColor=default;flipV=1;" vertex="1" parent="1">
          <mxGeometry x="293" y="-203" width="60" height="40" as="geometry" />
        </mxCell>
        <mxCell id="XT3MhefaFS9jrLEFvtJ--52" style="edgeStyle=none;shape=connector;rounded=0;orthogonalLoop=1;jettySize=auto;html=1;strokeColor=default;align=center;verticalAlign=middle;fontFamily=Helvetica;fontSize=11;fontColor=default;labelBackgroundColor=default;endArrow=none;endFill=0;" edge="1" parent="1" source="XT3MhefaFS9jrLEFvtJ--47" target="XT3MhefaFS9jrLEFvtJ--25">
          <mxGeometry relative="1" as="geometry" />
        </mxCell>
        <mxCell id="XT3MhefaFS9jrLEFvtJ--47" value="win" style="ellipse;whiteSpace=wrap;html=1;align=center;fontFamily=Helvetica;fontSize=11;fontColor=default;labelBackgroundColor=default;flipV=1;" vertex="1" parent="1">
          <mxGeometry x="231.5" y="-250" width="60" height="40" as="geometry" />
        </mxCell>
        <mxCell id="XT3MhefaFS9jrLEFvtJ--50" style="edgeStyle=none;shape=connector;rounded=0;orthogonalLoop=1;jettySize=auto;html=1;strokeColor=default;align=center;verticalAlign=middle;fontFamily=Helvetica;fontSize=11;fontColor=default;labelBackgroundColor=default;endArrow=none;endFill=0;" edge="1" parent="1" source="XT3MhefaFS9jrLEFvtJ--48" target="XT3MhefaFS9jrLEFvtJ--25">
          <mxGeometry relative="1" as="geometry" />
        </mxCell>
        <mxCell id="XT3MhefaFS9jrLEFvtJ--48" value="loss" style="ellipse;whiteSpace=wrap;html=1;align=center;fontFamily=Helvetica;fontSize=11;fontColor=default;labelBackgroundColor=default;flipV=1;" vertex="1" parent="1">
          <mxGeometry x="160" y="-250" width="60" height="40" as="geometry" />
        </mxCell>
        <mxCell id="XT3MhefaFS9jrLEFvtJ--51" style="edgeStyle=none;shape=connector;rounded=0;orthogonalLoop=1;jettySize=auto;html=1;strokeColor=default;align=center;verticalAlign=middle;fontFamily=Helvetica;fontSize=11;fontColor=default;labelBackgroundColor=default;endArrow=none;endFill=0;" edge="1" parent="1" source="XT3MhefaFS9jrLEFvtJ--49" target="XT3MhefaFS9jrLEFvtJ--25">
          <mxGeometry relative="1" as="geometry" />
        </mxCell>
        <mxCell id="XT3MhefaFS9jrLEFvtJ--49" value="draw" style="ellipse;whiteSpace=wrap;html=1;align=center;fontFamily=Helvetica;fontSize=11;fontColor=default;labelBackgroundColor=default;flipV=1;" vertex="1" parent="1">
          <mxGeometry x="124" y="-202" width="60" height="40" as="geometry" />
        </mxCell>
        <mxCell id="XT3MhefaFS9jrLEFvtJ--55" style="edgeStyle=none;shape=connector;rounded=0;orthogonalLoop=1;jettySize=auto;html=1;strokeColor=default;align=center;verticalAlign=middle;fontFamily=Helvetica;fontSize=11;fontColor=default;labelBackgroundColor=default;endArrow=none;endFill=0;" edge="1" parent="1" source="XT3MhefaFS9jrLEFvtJ--54" target="XT3MhefaFS9jrLEFvtJ--10">
          <mxGeometry relative="1" as="geometry" />
        </mxCell>
        <mxCell id="XT3MhefaFS9jrLEFvtJ--54" value="gameId" style="ellipse;whiteSpace=wrap;html=1;align=center;fontStyle=4;fontFamily=Helvetica;fontSize=11;fontColor=default;labelBackgroundColor=default;flipV=1;" vertex="1" parent="1">
          <mxGeometry x="-379.5" y="90" width="90" height="40" as="geometry" />
        </mxCell>
        <mxCell id="XT3MhefaFS9jrLEFvtJ--57" style="edgeStyle=none;shape=connector;rounded=0;orthogonalLoop=1;jettySize=auto;html=1;strokeColor=default;align=center;verticalAlign=middle;fontFamily=Helvetica;fontSize=11;fontColor=default;labelBackgroundColor=default;endArrow=none;endFill=0;" edge="1" parent="1" source="XT3MhefaFS9jrLEFvtJ--56" target="XT3MhefaFS9jrLEFvtJ--10">
          <mxGeometry relative="1" as="geometry" />
        </mxCell>
        <mxCell id="XT3MhefaFS9jrLEFvtJ--56" value="gameNumber" style="ellipse;whiteSpace=wrap;html=1;align=center;fontFamily=Helvetica;fontSize=11;fontColor=default;labelBackgroundColor=default;flipV=1;" vertex="1" parent="1">
          <mxGeometry x="-406" y="132" width="77" height="31" as="geometry" />
        </mxCell>
        <mxCell id="XT3MhefaFS9jrLEFvtJ--59" style="edgeStyle=none;shape=connector;rounded=0;orthogonalLoop=1;jettySize=auto;html=1;strokeColor=default;align=center;verticalAlign=middle;fontFamily=Helvetica;fontSize=11;fontColor=default;labelBackgroundColor=default;endArrow=none;endFill=0;" edge="1" parent="1" source="XT3MhefaFS9jrLEFvtJ--58" target="XT3MhefaFS9jrLEFvtJ--10">
          <mxGeometry relative="1" as="geometry" />
        </mxCell>
        <mxCell id="XT3MhefaFS9jrLEFvtJ--61" style="edgeStyle=orthogonalEdgeStyle;shape=connector;rounded=0;orthogonalLoop=1;jettySize=auto;html=1;strokeColor=default;align=center;verticalAlign=middle;fontFamily=Helvetica;fontSize=11;fontColor=default;labelBackgroundColor=default;endArrow=none;endFill=0;" edge="1" parent="1" source="XT3MhefaFS9jrLEFvtJ--58" target="fJpas_aMie5ZIC00HAkX-21">
          <mxGeometry relative="1" as="geometry">
            <Array as="points">
              <mxPoint x="800" y="-90" />
            </Array>
          </mxGeometry>
        </mxCell>
        <mxCell id="XT3MhefaFS9jrLEFvtJ--58" value="Win the game" style="shape=rhombus;perimeter=rhombusPerimeter;whiteSpace=wrap;html=1;align=center;fontFamily=Helvetica;fontSize=11;fontColor=default;labelBackgroundColor=default;" vertex="1" parent="1">
          <mxGeometry x="-342" y="-120" width="120" height="60" as="geometry" />
        </mxCell>
        <mxCell id="XT3MhefaFS9jrLEFvtJ--62" value="N" style="text;html=1;align=center;verticalAlign=middle;resizable=0;points=[];autosize=1;strokeColor=none;fillColor=none;fontFamily=Helvetica;fontSize=11;fontColor=default;labelBackgroundColor=default;" vertex="1" parent="1">
          <mxGeometry x="-285" y="-65" width="30" height="30" as="geometry" />
        </mxCell>
        <mxCell id="XT3MhefaFS9jrLEFvtJ--63" value="1" style="text;html=1;align=center;verticalAlign=middle;resizable=0;points=[];autosize=1;strokeColor=none;fillColor=none;fontFamily=Helvetica;fontSize=11;fontColor=default;labelBackgroundColor=default;" vertex="1" parent="1">
          <mxGeometry x="-234" y="-95" width="30" height="30" as="geometry" />
        </mxCell>
        <mxCell id="XT3MhefaFS9jrLEFvtJ--65" style="edgeStyle=none;shape=connector;rounded=0;orthogonalLoop=1;jettySize=auto;html=1;strokeColor=default;align=center;verticalAlign=middle;fontFamily=Helvetica;fontSize=11;fontColor=default;labelBackgroundColor=default;endArrow=none;endFill=0;" edge="1" parent="1" source="XT3MhefaFS9jrLEFvtJ--64" target="wX9nulocx6VRCnXDJnAP-21">
          <mxGeometry relative="1" as="geometry" />
        </mxCell>
        <mxCell id="XT3MhefaFS9jrLEFvtJ--64" value="round" style="ellipse;whiteSpace=wrap;html=1;align=center;fontFamily=Helvetica;fontSize=11;fontColor=default;labelBackgroundColor=default;flipV=1;" vertex="1" parent="1">
          <mxGeometry x="-216" y="401" width="60" height="40" as="geometry" />
        </mxCell>
        <mxCell id="XT3MhefaFS9jrLEFvtJ--67" style="edgeStyle=none;shape=connector;rounded=0;orthogonalLoop=1;jettySize=auto;html=1;strokeColor=default;align=center;verticalAlign=middle;fontFamily=Helvetica;fontSize=11;fontColor=default;labelBackgroundColor=default;endArrow=none;endFill=0;" edge="1" parent="1" source="XT3MhefaFS9jrLEFvtJ--66" target="XT3MhefaFS9jrLEFvtJ--2">
          <mxGeometry relative="1" as="geometry" />
        </mxCell>
        <mxCell id="XT3MhefaFS9jrLEFvtJ--66" value="isTieBreak" style="ellipse;whiteSpace=wrap;html=1;align=center;fontFamily=Helvetica;fontSize=11;fontColor=default;labelBackgroundColor=default;flipV=1;" vertex="1" parent="1">
          <mxGeometry x="-302" y="443" width="60" height="40" as="geometry" />
        </mxCell>
      </root>
    </mxGraphModel>
  </diagram>
  <diagram id="uC2eEmdOGYO3_Z0aBnIy" name="ER Mapping">
    <mxGraphModel dx="1434" dy="836" grid="1" gridSize="10" guides="1" tooltips="1" connect="1" arrows="1" fold="1" page="1" pageScale="1" pageWidth="1100" pageHeight="850" math="0" shadow="0">
      <root>
        <mxCell id="0" />
        <mxCell id="1" parent="0" />
        <mxCell id="vy5bnW0JeTOTz4FZlbyJ-29" value="Player" style="shape=table;startSize=30;container=1;collapsible=1;childLayout=tableLayout;fixedRows=1;rowLines=0;fontStyle=1;align=center;resizeLast=1;html=1;fontFamily=Helvetica;fontSize=11;fontColor=default;labelBackgroundColor=default;" vertex="1" parent="1">
          <mxGeometry x="110" y="110" width="180" height="150" as="geometry" />
        </mxCell>
        <mxCell id="vy5bnW0JeTOTz4FZlbyJ-30" value="" style="shape=tableRow;horizontal=0;startSize=0;swimlaneHead=0;swimlaneBody=0;fillColor=none;collapsible=0;dropTarget=0;points=[[0,0.5],[1,0.5]];portConstraint=eastwest;top=0;left=0;right=0;bottom=1;fontFamily=Helvetica;fontSize=11;fontColor=default;labelBackgroundColor=default;" vertex="1" parent="vy5bnW0JeTOTz4FZlbyJ-29">
          <mxGeometry y="30" width="180" height="30" as="geometry" />
        </mxCell>
        <mxCell id="vy5bnW0JeTOTz4FZlbyJ-31" value="PK" style="shape=partialRectangle;connectable=0;fillColor=none;top=0;left=0;bottom=0;right=0;fontStyle=1;overflow=hidden;whiteSpace=wrap;html=1;fontFamily=Helvetica;fontSize=11;fontColor=default;labelBackgroundColor=default;" vertex="1" parent="vy5bnW0JeTOTz4FZlbyJ-30">
          <mxGeometry width="30" height="30" as="geometry">
            <mxRectangle width="30" height="30" as="alternateBounds" />
          </mxGeometry>
        </mxCell>
        <mxCell id="vy5bnW0JeTOTz4FZlbyJ-32" value="playerID" style="shape=partialRectangle;connectable=0;fillColor=none;top=0;left=0;bottom=0;right=0;align=left;spacingLeft=6;fontStyle=5;overflow=hidden;whiteSpace=wrap;html=1;fontFamily=Helvetica;fontSize=11;fontColor=default;labelBackgroundColor=default;" vertex="1" parent="vy5bnW0JeTOTz4FZlbyJ-30">
          <mxGeometry x="30" width="150" height="30" as="geometry">
            <mxRectangle width="150" height="30" as="alternateBounds" />
          </mxGeometry>
        </mxCell>
        <mxCell id="vy5bnW0JeTOTz4FZlbyJ-33" value="" style="shape=tableRow;horizontal=0;startSize=0;swimlaneHead=0;swimlaneBody=0;fillColor=none;collapsible=0;dropTarget=0;points=[[0,0.5],[1,0.5]];portConstraint=eastwest;top=0;left=0;right=0;bottom=0;fontFamily=Helvetica;fontSize=11;fontColor=default;labelBackgroundColor=default;" vertex="1" parent="vy5bnW0JeTOTz4FZlbyJ-29">
          <mxGeometry y="60" width="180" height="30" as="geometry" />
        </mxCell>
        <mxCell id="vy5bnW0JeTOTz4FZlbyJ-34" value="" style="shape=partialRectangle;connectable=0;fillColor=none;top=0;left=0;bottom=0;right=0;editable=1;overflow=hidden;whiteSpace=wrap;html=1;fontFamily=Helvetica;fontSize=11;fontColor=default;labelBackgroundColor=default;" vertex="1" parent="vy5bnW0JeTOTz4FZlbyJ-33">
          <mxGeometry width="30" height="30" as="geometry">
            <mxRectangle width="30" height="30" as="alternateBounds" />
          </mxGeometry>
        </mxCell>
        <mxCell id="vy5bnW0JeTOTz4FZlbyJ-35" value="inagameName" style="shape=partialRectangle;connectable=0;fillColor=none;top=0;left=0;bottom=0;right=0;align=left;spacingLeft=6;overflow=hidden;whiteSpace=wrap;html=1;fontFamily=Helvetica;fontSize=11;fontColor=default;labelBackgroundColor=default;" vertex="1" parent="vy5bnW0JeTOTz4FZlbyJ-33">
          <mxGeometry x="30" width="150" height="30" as="geometry">
            <mxRectangle width="150" height="30" as="alternateBounds" />
          </mxGeometry>
        </mxCell>
        <mxCell id="vy5bnW0JeTOTz4FZlbyJ-36" value="" style="shape=tableRow;horizontal=0;startSize=0;swimlaneHead=0;swimlaneBody=0;fillColor=none;collapsible=0;dropTarget=0;points=[[0,0.5],[1,0.5]];portConstraint=eastwest;top=0;left=0;right=0;bottom=0;fontFamily=Helvetica;fontSize=11;fontColor=default;labelBackgroundColor=default;" vertex="1" parent="vy5bnW0JeTOTz4FZlbyJ-29">
          <mxGeometry y="90" width="180" height="30" as="geometry" />
        </mxCell>
        <mxCell id="vy5bnW0JeTOTz4FZlbyJ-37" value="" style="shape=partialRectangle;connectable=0;fillColor=none;top=0;left=0;bottom=0;right=0;editable=1;overflow=hidden;whiteSpace=wrap;html=1;fontFamily=Helvetica;fontSize=11;fontColor=default;labelBackgroundColor=default;" vertex="1" parent="vy5bnW0JeTOTz4FZlbyJ-36">
          <mxGeometry width="30" height="30" as="geometry">
            <mxRectangle width="30" height="30" as="alternateBounds" />
          </mxGeometry>
        </mxCell>
        <mxCell id="vy5bnW0JeTOTz4FZlbyJ-38" value="Row 2" style="shape=partialRectangle;connectable=0;fillColor=none;top=0;left=0;bottom=0;right=0;align=left;spacingLeft=6;overflow=hidden;whiteSpace=wrap;html=1;fontFamily=Helvetica;fontSize=11;fontColor=default;labelBackgroundColor=default;" vertex="1" parent="vy5bnW0JeTOTz4FZlbyJ-36">
          <mxGeometry x="30" width="150" height="30" as="geometry">
            <mxRectangle width="150" height="30" as="alternateBounds" />
          </mxGeometry>
        </mxCell>
        <mxCell id="vy5bnW0JeTOTz4FZlbyJ-39" value="" style="shape=tableRow;horizontal=0;startSize=0;swimlaneHead=0;swimlaneBody=0;fillColor=none;collapsible=0;dropTarget=0;points=[[0,0.5],[1,0.5]];portConstraint=eastwest;top=0;left=0;right=0;bottom=0;fontFamily=Helvetica;fontSize=11;fontColor=default;labelBackgroundColor=default;" vertex="1" parent="vy5bnW0JeTOTz4FZlbyJ-29">
          <mxGeometry y="120" width="180" height="30" as="geometry" />
        </mxCell>
        <mxCell id="vy5bnW0JeTOTz4FZlbyJ-40" value="" style="shape=partialRectangle;connectable=0;fillColor=none;top=0;left=0;bottom=0;right=0;editable=1;overflow=hidden;whiteSpace=wrap;html=1;fontFamily=Helvetica;fontSize=11;fontColor=default;labelBackgroundColor=default;" vertex="1" parent="vy5bnW0JeTOTz4FZlbyJ-39">
          <mxGeometry width="30" height="30" as="geometry">
            <mxRectangle width="30" height="30" as="alternateBounds" />
          </mxGeometry>
        </mxCell>
        <mxCell id="vy5bnW0JeTOTz4FZlbyJ-41" value="Row 3" style="shape=partialRectangle;connectable=0;fillColor=none;top=0;left=0;bottom=0;right=0;align=left;spacingLeft=6;overflow=hidden;whiteSpace=wrap;html=1;fontFamily=Helvetica;fontSize=11;fontColor=default;labelBackgroundColor=default;" vertex="1" parent="vy5bnW0JeTOTz4FZlbyJ-39">
          <mxGeometry x="30" width="150" height="30" as="geometry">
            <mxRectangle width="150" height="30" as="alternateBounds" />
          </mxGeometry>
        </mxCell>
      </root>
    </mxGraphModel>
  </diagram>
</mxfile>
